<svg width="46" height="47" viewBox="0 0 46 47" fill="none" xmlns="http://www.w3.org/2000/svg">
<g clip-path="url(#clip0_50_1022)">
<ellipse cx="23.1107" cy="43.6184" rx="17.5526" ry="3.02632" fill="#1D1939"/>
<path fill-rule="evenodd" clip-rule="evenodd" d="M9.29492 32.1185C9.29492 32.1185 14.2754 29.0424 21.0114 32.1185C24.2926 33.6168 29.8515 31.8265 33.4002 26.6711C34.7083 24.7707 35.2351 19.5753 35.2351 19.5753C35.2351 19.5753 39.9738 31.832 34.1738 37.7252C28.3739 43.6185 14.9522 39.0831 14.9522 39.0831C14.9522 39.0831 11.9338 36.9157 10.8558 35.5886C9.77785 34.2616 9.29492 32.1185 9.29492 32.1185Z" fill="#00C5B3"/>
<path fill-rule="evenodd" clip-rule="evenodd" d="M29.6895 9.27466C29.6895 9.76789 29.5468 10.2246 29.3139 10.6203C34.4448 14.0437 38.2422 21.5151 38.2422 28.3932C38.2422 36.6646 32.4441 41.8027 23.1106 41.8027C13.777 41.8027 7.979 36.6646 7.979 28.3932C7.979 21.5158 11.7764 14.0437 16.9073 10.6209C16.6744 10.2246 16.5316 9.76789 16.5316 9.27466C16.5316 8.23509 17.1316 7.34289 17.9961 6.90741L15.704 4.13191C15.3895 3.75087 15.2158 3.2676 15.2158 2.77105C15.2158 1.59871 16.1612 0.644775 17.3224 0.644775H17.8007C18.802 0.644775 19.7474 1.01852 20.479 1.7016C21.2119 1.01785 22.1514 0.644775 23.1106 0.644775C24.0836 0.644775 25.0369 1.02847 25.7428 1.70094C26.4751 1.01785 27.4198 0.644775 28.4205 0.644775H28.4869C29.8751 0.644775 31.0053 1.78458 31.0053 3.18661C31.0053 3.86505 30.7435 4.503 30.2678 4.98295L28.3132 6.95521C29.129 7.40662 29.6895 8.2716 29.6895 9.27466ZM17.3223 1.97245C16.8862 1.97245 16.5315 2.33092 16.5315 2.77104C16.5315 2.95692 16.5967 3.13881 16.7158 3.2822L19.4717 6.61931H20.1651L19.2098 4.21024L20.4315 3.71701L21.5822 6.61931H22.4526V3.30012H23.7684V6.61931H24.6388L25.7888 3.71767L27.0105 4.2109L26.0559 6.61931H26.7855L29.3375 4.04495C29.5644 3.81592 29.6894 3.51056 29.6894 3.1866C29.6894 2.51679 29.15 1.97245 28.4868 1.97245H28.4204C27.7177 1.97245 27.0565 2.2486 26.5592 2.7498C26.125 3.18992 25.3598 3.19059 24.9243 2.74914C23.9204 1.73811 22.2677 1.77064 21.3296 2.71661C20.8283 3.22311 20.0967 3.19059 19.6612 2.74914C19.1644 2.2486 18.5033 1.97245 17.8006 1.97245H17.3223ZM19.1631 7.94698H27.0578C27.7835 7.94698 28.3736 8.54244 28.3736 9.27466C28.3736 10.0069 27.7835 10.6023 27.0578 10.6023H19.1631C18.4374 10.6023 17.8473 10.0069 17.8473 9.27466C17.8473 8.54244 18.4374 7.94698 19.1631 7.94698ZM9.29469 28.3932C9.29469 35.9583 14.4598 40.475 23.1105 40.475C31.7611 40.475 36.9263 35.9583 36.9263 28.3932C36.9263 21.8179 33.2618 14.6829 28.3506 11.5729C27.9671 11.7939 27.5302 11.93 27.0578 11.93H26.7138L27.669 14.3391L26.4473 14.8323L25.2967 11.93H23.7684V14.5854H22.4526V11.93H20.9243L19.7743 14.8316L18.5526 14.3384L19.5072 11.93H19.1631C18.6907 11.93 18.2532 11.7939 17.8697 11.5729C12.9592 14.6829 9.29469 21.8185 9.29469 28.3932Z" fill="black"/>
<path d="M29.3139 10.6203L29.1846 10.5442L29.1127 10.6663L29.2306 10.745L29.3139 10.6203ZM16.9073 10.6209L16.9905 10.7457L17.1084 10.6671L17.0366 10.5449L16.9073 10.6209ZM17.9961 6.90741L18.0636 7.04138L18.2314 6.95682L18.1118 6.8119L17.9961 6.90741ZM15.704 4.13191L15.5883 4.22739L15.5883 4.22743L15.704 4.13191ZM20.479 1.7016L20.3766 1.81124L20.479 1.90679L20.5813 1.81128L20.479 1.7016ZM25.7428 1.70094L25.6394 1.80955L25.7417 1.90708L25.8451 1.81062L25.7428 1.70094ZM30.2678 4.98295L30.1613 4.87736L30.2678 4.98295ZM28.3132 6.95521L28.2067 6.84962L28.0671 6.99046L28.2406 7.08646L28.3132 6.95521ZM16.7158 3.2822L16.8314 3.18668L16.8312 3.18636L16.7158 3.2822ZM19.4717 6.61931L19.356 6.71482L19.401 6.76931H19.4717V6.61931ZM20.1651 6.61931V6.76931H20.3859L20.3045 6.56401L20.1651 6.61931ZM19.2098 4.21024L19.1537 4.07115L19.0154 4.12696L19.0704 4.26553L19.2098 4.21024ZM20.4315 3.71701L20.571 3.66173L20.5154 3.52141L20.3754 3.57792L20.4315 3.71701ZM21.5822 6.61931L21.4428 6.67459L21.4803 6.76931H21.5822V6.61931ZM22.4526 6.61931V6.76931H22.6026V6.61931H22.4526ZM22.4526 3.30012V3.15012H22.3026V3.30012H22.4526ZM23.7684 3.30012H23.9184V3.15012H23.7684V3.30012ZM23.7684 6.61931H23.6184V6.76931H23.7684V6.61931ZM24.6388 6.61931V6.76931H24.7407L24.7782 6.67457L24.6388 6.61931ZM25.7888 3.71767L25.8449 3.57858L25.705 3.52207L25.6493 3.66241L25.7888 3.71767ZM27.0105 4.2109L27.1499 4.26618L27.2049 4.12761L27.0666 4.07181L27.0105 4.2109ZM26.0559 6.61931L25.9164 6.56403L25.8351 6.76931H26.0559V6.61931ZM26.7855 6.61931V6.76931H26.848L26.892 6.72491L26.7855 6.61931ZM29.3375 4.04495L29.444 4.15055L29.444 4.15053L29.3375 4.04495ZM26.5592 2.7498L26.4527 2.64414L26.4524 2.64445L26.5592 2.7498ZM24.9243 2.74914L25.0311 2.64379L25.0307 2.64344L24.9243 2.74914ZM21.3296 2.71661L21.2231 2.61098L21.223 2.61109L21.3296 2.71661ZM19.6612 2.74914L19.7679 2.64379L19.7676 2.64348L19.6612 2.74914ZM28.3506 11.5729L28.4309 11.4461L28.3543 11.3976L28.2757 11.4429L28.3506 11.5729ZM26.7138 11.93V11.78H26.4929L26.5743 11.9853L26.7138 11.93ZM27.669 14.3391L27.7252 14.4782L27.8634 14.4224L27.8085 14.2838L27.669 14.3391ZM26.4473 14.8323L26.3079 14.8876L26.3635 15.0279L26.5035 14.9714L26.4473 14.8323ZM25.2967 11.93L25.4361 11.8747L25.3986 11.78H25.2967V11.93ZM23.7684 11.93V11.78H23.6184V11.93H23.7684ZM23.7684 14.5854V14.7354H23.9184V14.5854H23.7684ZM22.4526 14.5854H22.3026V14.7354H22.4526V14.5854ZM22.4526 11.93H22.6026V11.78H22.4526V11.93ZM20.9243 11.93V11.78H20.8224L20.7849 11.8747L20.9243 11.93ZM19.7743 14.8316L19.7181 14.9707L19.8581 15.0272L19.9137 14.8869L19.7743 14.8316ZM18.5526 14.3384L18.4131 14.2831L18.3582 14.4217L18.4964 14.4775L18.5526 14.3384ZM19.5072 11.93L19.6466 11.9853L19.728 11.78H19.5072V11.93ZM17.8697 11.5729L17.9446 11.4429L17.866 11.3976L17.7894 11.4461L17.8697 11.5729ZM29.4431 10.6963C29.6881 10.2802 29.8395 9.79749 29.8395 9.27466H29.5395C29.5395 9.73829 29.4054 10.169 29.1846 10.5442L29.4431 10.6963ZM38.3922 28.3932C38.3922 21.4706 34.5742 13.9497 29.3971 10.4955L29.2306 10.745C34.3154 14.1376 38.0922 21.5596 38.0922 28.3932H38.3922ZM23.1106 41.9527C27.8039 41.9527 31.6256 40.6607 34.2759 38.312C36.9284 35.9614 38.3922 32.5659 38.3922 28.3932H38.0922C38.0922 32.4918 36.6569 35.8011 34.077 38.0874C31.4949 40.3756 27.7508 41.6527 23.1106 41.6527V41.9527ZM7.829 28.3932C7.829 32.5659 9.29276 35.9614 11.9452 38.312C14.5956 40.6607 18.4172 41.9527 23.1106 41.9527V41.6527C18.4704 41.6527 14.7262 40.3756 12.1442 38.0874C9.56426 35.8011 8.129 32.4918 8.129 28.3932H7.829ZM16.8241 10.4961C11.6469 13.9497 7.829 21.4713 7.829 28.3932H8.129C8.129 21.5603 11.9058 14.1376 16.9905 10.7457L16.8241 10.4961ZM16.3816 9.27466C16.3816 9.7975 16.5331 10.2802 16.778 10.6969L17.0366 10.5449C16.8157 10.169 16.6816 9.73827 16.6816 9.27466H16.3816ZM17.9286 6.77345C17.0162 7.23308 16.3816 8.17552 16.3816 9.27466H16.6816C16.6816 8.29465 17.2471 7.4527 18.0636 7.04138L17.9286 6.77345ZM15.5883 4.22743L17.8804 7.00293L18.1118 6.8119L15.8197 4.0364L15.5883 4.22743ZM15.0658 2.77105C15.0658 3.30235 15.2516 3.8194 15.5883 4.22739L15.8197 4.03643C15.5275 3.68233 15.3658 3.23284 15.3658 2.77105H15.0658ZM17.3224 0.494775C16.0771 0.494775 15.0658 1.51717 15.0658 2.77105H15.3658C15.3658 1.68025 16.2454 0.794775 17.3224 0.794775V0.494775ZM17.8007 0.494775H17.3224V0.794775H17.8007V0.494775ZM20.5814 1.59197C19.8221 0.883005 18.8401 0.494775 17.8007 0.494775V0.794775C18.7639 0.794775 19.6728 1.15403 20.3766 1.81124L20.5814 1.59197ZM23.1106 0.494775C22.1122 0.494775 21.1365 0.883074 20.3767 1.59192L20.5813 1.81128C21.2873 1.15263 22.1905 0.794775 23.1106 0.794775V0.494775ZM25.8463 1.59233C25.1127 0.893487 24.1224 0.494775 23.1106 0.494775V0.794775C24.0448 0.794775 24.9611 1.16346 25.6394 1.80955L25.8463 1.59233ZM28.4205 0.494775C27.3817 0.494775 26.4004 0.882328 25.6405 1.59126L25.8451 1.81062C26.5497 1.15338 27.4579 0.794775 28.4205 0.794775V0.494775ZM28.4869 0.494775H28.4205V0.794775H28.4869V0.494775ZM31.1553 3.18661C31.1553 1.70302 29.9592 0.494775 28.4869 0.494775V0.794775C29.7909 0.794775 30.8553 1.86615 30.8553 3.18661H31.1553ZM30.3744 5.08854C30.878 4.58036 31.1553 3.9044 31.1553 3.18661H30.8553C30.8553 3.8257 30.609 4.42564 30.1613 4.87736L30.3744 5.08854ZM28.4198 7.0608L30.3744 5.08854L30.1613 4.87736L28.2067 6.84962L28.4198 7.0608ZM29.8395 9.27466C29.8395 8.21388 29.2465 7.30023 28.3858 6.82396L28.2406 7.08646C29.0115 7.51301 29.5395 8.32932 29.5395 9.27466H29.8395ZM16.6815 2.77104C16.6815 2.41232 16.9704 2.12245 17.3223 2.12245V1.82245C16.8019 1.82245 16.3815 2.24951 16.3815 2.77104H16.6815ZM16.8312 3.18636C16.7346 3.07009 16.6815 2.92216 16.6815 2.77104H16.3815C16.3815 2.99167 16.4588 3.20752 16.6004 3.37803L16.8312 3.18636ZM19.5873 6.52379L16.8314 3.18668L16.6001 3.37771L19.356 6.71482L19.5873 6.52379ZM20.1651 6.46931H19.4717V6.76931H20.1651V6.46931ZM19.0704 4.26553L20.0257 6.6746L20.3045 6.56401L19.3493 4.15495L19.0704 4.26553ZM20.3754 3.57792L19.1537 4.07115L19.266 4.34933L20.4877 3.8561L20.3754 3.57792ZM21.7216 6.56402L20.571 3.66173L20.2921 3.77229L21.4428 6.67459L21.7216 6.56402ZM22.4526 6.46931H21.5822V6.76931H22.4526V6.46931ZM22.3026 3.30012V6.61931H22.6026V3.30012H22.3026ZM23.7684 3.15012H22.4526V3.45012H23.7684V3.15012ZM23.9184 6.61931V3.30012H23.6184V6.61931H23.9184ZM24.6388 6.46931H23.7684V6.76931H24.6388V6.46931ZM25.6493 3.66241L24.4993 6.56404L24.7782 6.67457L25.9282 3.77294L25.6493 3.66241ZM27.0666 4.07181L25.8449 3.57858L25.7326 3.85677L26.9543 4.35L27.0666 4.07181ZM26.1953 6.67458L27.1499 4.26618L26.871 4.15563L25.9164 6.56403L26.1953 6.67458ZM26.7855 6.46931H26.0559V6.76931H26.7855V6.46931ZM29.2309 3.93934L26.679 6.5137L26.892 6.72491L29.444 4.15055L29.2309 3.93934ZM29.5394 3.1866C29.5394 3.47132 29.4298 3.73865 29.2309 3.93936L29.444 4.15053C29.699 3.89319 29.8394 3.54979 29.8394 3.1866H29.5394ZM28.4868 2.12245C29.0658 2.12245 29.5394 2.59831 29.5394 3.1866H29.8394C29.8394 2.43528 29.2341 1.82245 28.4868 1.82245V2.12245ZM28.4204 2.12245H28.4868V1.82245H28.4204V2.12245ZM26.6656 2.85546C27.135 2.38248 27.7579 2.12245 28.4204 2.12245V1.82245C27.6775 1.82245 26.9781 2.11472 26.4527 2.64414L26.6656 2.85546ZM24.8175 2.85448C25.3118 3.35547 26.173 3.35481 26.666 2.85515L26.4524 2.64445C26.0769 3.02504 25.4079 3.0257 25.0311 2.64379L24.8175 2.85448ZM21.4361 2.82223C22.3155 1.93547 23.8726 1.90284 24.8179 2.85483L25.0307 2.64344C23.9682 1.57338 22.2199 1.60581 21.2231 2.61098L21.4361 2.82223ZM19.5544 2.85448C20.0487 3.35557 20.8763 3.38785 21.4362 2.82213L21.223 2.61109C20.7803 3.05838 20.1446 3.02561 19.7679 2.64379L19.5544 2.85448ZM17.8006 2.12245C18.4631 2.12245 19.086 2.3825 19.5547 2.85479L19.7676 2.64348C19.2429 2.1147 18.5434 1.82245 17.8006 1.82245V2.12245ZM17.3223 2.12245H17.8006V1.82245H17.3223V2.12245ZM27.0578 7.79698H19.1631V8.09698H27.0578V7.79698ZM28.5236 9.27466C28.5236 8.46088 27.8676 7.79698 27.0578 7.79698V8.09698C27.6994 8.09698 28.2236 8.62401 28.2236 9.27466H28.5236ZM27.0578 10.7523C27.8676 10.7523 28.5236 10.0884 28.5236 9.27466H28.2236C28.2236 9.9253 27.6994 10.4523 27.0578 10.4523V10.7523ZM19.1631 10.7523H27.0578V10.4523H19.1631V10.7523ZM17.6973 9.27466C17.6973 10.0884 18.3533 10.7523 19.1631 10.7523V10.4523C18.5215 10.4523 17.9973 9.9253 17.9973 9.27466H17.6973ZM19.1631 7.79698C18.3533 7.79698 17.6973 8.46088 17.6973 9.27466H17.9973C17.9973 8.62401 18.5215 8.09698 19.1631 8.09698V7.79698ZM23.1105 40.325C18.8099 40.325 15.395 39.2023 13.0573 37.1581C10.7223 35.1161 9.44469 32.1396 9.44469 28.3932H9.14469C9.14469 32.2118 10.4496 35.2762 12.8598 37.3839C15.2674 39.4893 18.7605 40.625 23.1105 40.625V40.325ZM36.7763 28.3932C36.7763 32.1396 35.4986 35.1161 33.1636 37.1581C30.826 39.2023 27.4111 40.325 23.1105 40.325V40.625C27.4605 40.625 30.9535 39.4893 33.3611 37.3839C35.7713 35.2762 37.0763 32.2118 37.0763 28.3932H36.7763ZM28.2704 11.6996C33.1324 14.7785 36.7763 21.862 36.7763 28.3932H37.0763C37.0763 21.7737 33.3912 14.5874 28.4309 11.4461L28.2704 11.6996ZM27.0578 12.08C27.5598 12.08 28.0222 11.9353 28.4255 11.7028L28.2757 11.4429C27.9119 11.6526 27.5006 11.78 27.0578 11.78V12.08ZM26.7138 12.08H27.0578V11.78H26.7138V12.08ZM27.8085 14.2838L26.8532 11.8747L26.5743 11.9853L27.5296 14.3944L27.8085 14.2838ZM26.5035 14.9714L27.7252 14.4782L27.6129 14.2L26.3912 14.6932L26.5035 14.9714ZM25.1572 11.9853L26.3079 14.8876L26.5868 14.777L25.4361 11.8747L25.1572 11.9853ZM23.7684 12.08H25.2967V11.78H23.7684V12.08ZM23.9184 14.5854V11.93H23.6184V14.5854H23.9184ZM22.4526 14.7354H23.7684V14.4354H22.4526V14.7354ZM22.3026 11.93V14.5854H22.6026V11.93H22.3026ZM20.9243 12.08H22.4526V11.78H20.9243V12.08ZM19.9137 14.8869L21.0637 11.9853L20.7849 11.8747L19.6349 14.7764L19.9137 14.8869ZM18.4964 14.4775L19.7181 14.9707L19.8305 14.6925L18.6087 14.1993L18.4964 14.4775ZM19.3677 11.8747L18.4131 14.2831L18.692 14.3937L19.6466 11.9853L19.3677 11.8747ZM19.1631 12.08H19.5072V11.78H19.1631V12.08ZM17.7948 11.7028C18.1981 11.9353 18.6612 12.08 19.1631 12.08V11.78C18.7203 11.78 18.3084 11.6526 17.9446 11.4429L17.7948 11.7028ZM9.44469 28.3932C9.44469 21.8627 13.0886 14.7785 17.95 11.6996L17.7894 11.4461C12.8297 14.5874 9.14469 21.7743 9.14469 28.3932H9.44469Z" fill="black"/>
<path fill-rule="evenodd" clip-rule="evenodd" d="M12.8213 26.6711C12.8213 20.9975 17.4371 16.3816 23.1108 16.3816C28.7844 16.3816 33.4002 20.9975 33.4002 26.6711C33.4002 32.3447 28.7844 36.9606 23.1108 36.9606C17.4371 36.9606 12.8213 32.3447 12.8213 26.6711ZM14.193 26.6711C14.193 31.5881 18.1936 35.5886 23.1106 35.5886C28.0276 35.5886 32.0281 31.5881 32.0281 26.6711C32.0281 21.7541 28.0276 17.7536 23.1106 17.7536C18.1936 17.7536 14.193 21.7541 14.193 26.6711Z" fill="black"/>
<path d="M23.1108 16.2316C17.3543 16.2316 12.6713 20.9146 12.6713 26.6711H12.9713C12.9713 21.0803 17.52 16.5316 23.1108 16.5316V16.2316ZM33.5502 26.6711C33.5502 20.9146 28.8672 16.2316 23.1108 16.2316V16.5316C28.7015 16.5316 33.2502 21.0803 33.2502 26.6711H33.5502ZM23.1108 37.1106C28.8672 37.1106 33.5502 32.4276 33.5502 26.6711H33.2502C33.2502 32.2619 28.7015 36.8106 23.1108 36.8106V37.1106ZM12.6713 26.6711C12.6713 32.4276 17.3543 37.1106 23.1108 37.1106V36.8106C17.52 36.8106 12.9713 32.2619 12.9713 26.6711H12.6713ZM23.1106 35.4386C18.2764 35.4386 14.343 31.5052 14.343 26.6711H14.043C14.043 31.6709 18.1107 35.7386 23.1106 35.7386V35.4386ZM31.8781 26.6711C31.8781 31.5052 27.9447 35.4386 23.1106 35.4386V35.7386C28.1104 35.7386 32.1781 31.6709 32.1781 26.6711H31.8781ZM23.1106 17.9036C27.9447 17.9036 31.8781 21.8369 31.8781 26.6711H32.1781C32.1781 21.6713 28.1104 17.6036 23.1106 17.6036V17.9036ZM14.343 26.6711C14.343 21.8369 18.2764 17.9036 23.1106 17.9036V17.6036C18.1107 17.6036 14.043 21.6713 14.043 26.6711H14.343Z" fill="black"/>
<path d="M26.0759 24.6283C26.0355 24.587 25.9838 24.5664 25.9209 24.5664H24.7684C24.692 24.186 24.5482 23.8557 24.337 23.576H25.9074C25.9704 23.576 26.022 23.5554 26.0625 23.5142C26.1027 23.473 26.1229 23.4202 26.1229 23.356V22.6543C26.1229 22.5901 26.1027 22.5374 26.0625 22.4961C26.0219 22.4549 25.9704 22.4342 25.9073 22.4342H20.2996C20.2367 22.4342 20.1851 22.4549 20.1446 22.4961C20.1043 22.5374 20.084 22.5901 20.084 22.6543V23.5691C20.084 23.6287 20.1053 23.6802 20.148 23.7238C20.1907 23.7674 20.2412 23.7891 20.2996 23.7891H21.277C22.225 23.7891 22.8271 24.0481 23.0832 24.5663H20.2996C20.2367 24.5663 20.185 24.5869 20.1446 24.6282C20.1043 24.6695 20.084 24.7222 20.084 24.7864V25.488C20.084 25.5522 20.1042 25.6049 20.1446 25.6461C20.1851 25.6874 20.2368 25.708 20.2996 25.708H23.1777C23.0789 26.0841 22.8486 26.3706 22.4868 26.5678C22.125 26.765 21.6477 26.8636 21.0545 26.8636H20.2996C20.2412 26.8636 20.1907 26.8854 20.148 26.9289C20.1053 26.9725 20.084 27.0241 20.084 27.0836V27.9572C20.084 28.0169 20.1042 28.0673 20.1446 28.1086C21.0073 29.044 22.1262 30.353 23.5012 32.0359C23.5416 32.091 23.5978 32.1184 23.6697 32.1184H24.984C25.0784 32.1184 25.1436 32.0773 25.1795 31.9946C25.2244 31.9121 25.2156 31.8341 25.1525 31.7607C23.8406 30.1191 22.8092 28.8903 22.0588 28.0741C22.8227 27.9824 23.4428 27.7302 23.9191 27.3176C24.3954 26.9049 24.6852 26.3683 24.7886 25.7081H25.9209C25.9838 25.7081 26.0355 25.6875 26.0759 25.6462C26.1164 25.605 26.1366 25.5523 26.1366 25.4881V24.7866C26.1366 24.7223 26.1164 24.6696 26.0759 24.6283Z" fill="black"/>
</g>
<defs>
<clipPath id="clip0_50_1022">
<rect width="46" height="46" fill="white" transform="translate(0 0.644775)"/>
</clipPath>
</defs>
</svg>
