<svg width="46" height="47" viewBox="0 0 46 47" fill="none" xmlns="http://www.w3.org/2000/svg">
<g clip-path="url(#clip0_50_1032)">
<ellipse cx="23.5454" cy="43.5261" rx="18.7119" ry="3.11864" fill="#1D1939"/>
<path d="M4.8335 35.7774C4.8335 31.0409 8.67323 27.1533 13.4098 27.1533C18.1463 27.1533 21.986 31.0409 21.986 35.7774C21.986 39.605 18.8832 42.7465 15.0557 42.7465H11.7638C7.93631 42.7465 4.8335 39.605 4.8335 35.7774Z" fill="#EAFCFF"/>
<rect x="19.1792" y="1.26849" width="10.6034" height="3.11864" rx="1.55932" fill="#287CF1"/>
<path d="M17.5435 34.538H18.9557V35.9502H17.5435V34.538Z" fill="black"/>
<path fill-rule="evenodd" clip-rule="evenodd" d="M20.7923 28.7668C20.8506 26.9089 22.9144 26.476 24.4808 27.4769C29.589 30.7409 30.7893 19.2906 34.8473 21.9963C35.6127 22.5066 35.9206 23.4597 35.9545 24.3789L36.4833 38.7149C36.5695 41.0532 34.6391 42.9659 32.3017 42.8581L20.3677 42.3077L20.7923 28.7668Z" fill="#00C5B3"/>
<path d="M7.65771 34.538H9.06993V35.9502H7.65771V34.538Z" fill="black"/>
<path d="M12.6007 33.1257H14.013C14.4029 33.1257 14.7191 33.4419 14.7191 33.8318H16.1313C16.1313 32.6619 15.1829 31.7135 14.013 31.7135V31.0074H12.6007V31.7135C11.4308 31.7135 10.4824 32.6619 10.4824 33.8318C10.4824 35.0018 11.4308 35.9502 12.6007 35.9502H14.013C14.4029 35.9502 14.7191 36.2663 14.7191 36.6563C14.7191 37.0463 14.4029 37.3624 14.013 37.3624H12.6007C12.2108 37.3624 11.8946 37.0463 11.8946 36.6563H10.4824C10.4824 37.8262 11.4308 38.7746 12.6007 38.7746V39.4807H14.013V38.7746C15.1829 38.7746 16.1313 37.8262 16.1313 36.6563C16.1313 35.4864 15.1829 34.538 14.013 34.538H12.6007C12.2108 34.538 11.8946 34.2218 11.8946 33.8318C11.8946 33.4419 12.2108 33.1257 12.6007 33.1257Z" fill="black"/>
<path d="M33.0778 12.6486H34.49C34.88 12.6486 35.1961 12.9647 35.1961 13.3547H36.6083C36.6083 12.1848 35.6599 11.2364 34.49 11.2364V10.5303H33.0778V11.2364C31.9079 11.2364 30.9595 12.1848 30.9595 13.3547C30.9595 14.5246 31.9079 15.473 33.0778 15.473H34.49C34.88 15.473 35.1961 15.7892 35.1961 16.1791C35.1961 16.5691 34.88 16.8852 34.49 16.8852H33.0778C32.6878 16.8852 32.3717 16.5691 32.3717 16.1791H30.9595C30.9595 17.3491 31.9079 18.2975 33.0778 18.2975V19.0036H34.49V18.2975C35.6599 18.2975 36.6083 17.3491 36.6083 16.1791C36.6083 15.0092 35.6599 14.0608 34.49 14.0608H33.0778C32.6878 14.0608 32.3717 13.7447 32.3717 13.3547C32.3717 12.9647 32.6878 12.6486 33.0778 12.6486Z" fill="black"/>
<path fill-rule="evenodd" clip-rule="evenodd" d="M9.07031 22.3532L11.2316 27.4769H16.1314L17.5436 22.3532L16.1314 21.2996H14.7182L13.307 22.3532H12.1661L11.7222 21.2996H10.013L9.07031 22.3532Z" fill="#25CDEB"/>
<path fill-rule="evenodd" clip-rule="evenodd" d="M37.3145 7.07389C40.3221 8.45399 42.252 11.4578 42.2572 14.7669C42.2534 18.0774 40.3233 21.0829 37.3145 22.4635V39.4807C37.3121 41.4296 35.7328 43.0089 33.7839 43.0113H9.77625C7.04773 43.0081 4.83661 40.797 4.8335 38.0685V34.538C4.83761 31.5149 6.45206 28.7229 9.07014 27.2114V26.0647H9.90406L8.40852 22.0759C8.32721 21.8589 8.35747 21.616 8.48949 21.4256C8.62151 21.2353 8.83849 21.1218 9.07014 21.1219C9.32528 21.1035 9.57004 21.0134 9.77625 20.8621C10.1956 20.5833 10.6851 20.4286 11.1885 20.4158C11.4347 20.4164 11.6771 20.477 11.8946 20.5923V4.17532C11.8969 2.22642 13.4762 0.64711 15.4251 0.644775H33.7839C35.7328 0.64711 37.3121 2.22642 37.3145 4.17532V7.07389ZM28.8412 2.05699H20.3679V2.7631C20.3679 3.15307 20.684 3.46921 21.074 3.46921H28.1351C28.5251 3.46921 28.8412 3.15307 28.8412 2.7631V2.05699ZM10.0128 22.3315C10.1738 22.2591 10.3305 22.1777 10.4824 22.0879C10.6886 21.9365 10.9334 21.8464 11.1885 21.828C11.3045 21.828 11.5234 22.0756 11.6951 22.2697L11.716 22.2933C12.0772 22.8318 12.6613 23.1795 13.3068 23.2402C13.9524 23.1795 14.5365 22.8318 14.8977 22.2933L14.9186 22.2697C15.0903 22.0756 15.3092 21.828 15.4252 21.828C15.6803 21.8464 15.9251 21.9365 16.1313 22.0879C16.2822 22.1777 16.438 22.259 16.598 22.3315L15.2013 26.0647H11.4123L10.0128 22.3315ZM6.24568 38.0685C6.24801 40.0174 7.82732 41.5967 9.77622 41.599H16.8373C18.7862 41.5967 20.3655 40.0174 20.3678 38.0685V34.538C20.3643 31.6737 18.6327 29.0947 15.9829 28.0072C16.0788 28.2914 16.1288 28.5891 16.1312 28.8891V29.5952H14.719V28.8891C14.719 28.1092 14.0867 27.4769 13.3068 27.4769C12.5268 27.4769 11.8945 28.1092 11.8945 28.8891V29.5952H10.4823V28.8891C10.4847 28.5891 10.5348 28.2914 10.6306 28.0072C7.98083 29.0947 6.24921 31.6737 6.24568 34.538V38.0685ZM35.9023 39.4807C35.9023 40.6506 34.9538 41.599 33.7839 41.599H20.2895C21.2428 40.6718 21.7804 39.3984 21.7801 38.0685V34.538C21.776 31.5149 20.1615 28.7229 17.5434 27.2114V26.0647H16.7095L18.2051 22.0759C18.2864 21.859 18.2561 21.616 18.1241 21.4256C17.9921 21.2353 17.7751 21.1218 17.5434 21.1219C17.2883 21.1035 17.0435 21.0134 16.8373 20.8621C16.418 20.5833 15.9285 20.4286 15.4251 20.4158C14.7796 20.4766 14.1955 20.8242 13.8343 21.3627L13.8134 21.3863L13.8133 21.3863C13.6417 21.5805 13.4228 21.828 13.3068 21.828V4.17532C13.3068 3.0054 14.2552 2.05699 15.4251 2.05699H18.9557V2.7631C18.9557 3.93302 19.9041 4.88142 21.074 4.88142H28.1351C29.305 4.88142 30.2534 3.93302 30.2534 2.7631V2.05699H33.7839C34.9538 2.05699 35.9023 3.0054 35.9023 4.17532V6.57608C32.4646 5.66556 28.8241 6.99849 26.7872 9.91352C24.7502 12.8285 24.7502 16.7053 26.7872 19.6204C28.8241 22.5354 32.4646 23.8683 35.9023 22.9578V39.4807ZM26.7228 14.7669C26.7228 18.6667 29.8842 21.828 33.7839 21.828C37.6819 21.8237 40.8407 18.6649 40.845 14.7669C40.845 10.8672 37.6836 7.70586 33.7839 7.70586C29.8842 7.70586 26.7228 10.8672 26.7228 14.7669Z" fill="black"/>
<path d="M42.2572 14.7669L42.4072 14.7671V14.7667L42.2572 14.7669ZM37.3145 7.07389H37.1645V7.1701L37.2519 7.21022L37.3145 7.07389ZM37.3145 22.4635L37.2519 22.3272L37.1645 22.3673V22.4635H37.3145ZM37.3145 39.4807L37.4645 39.4809V39.4807H37.3145ZM33.7839 43.0113V43.1613H33.7841L33.7839 43.0113ZM9.77625 43.0113L9.77608 43.1613H9.77625V43.0113ZM4.8335 38.0685H4.6835L4.6835 38.0687L4.8335 38.0685ZM4.8335 34.538L4.6835 34.5378V34.538H4.8335ZM9.07014 27.2114L9.14514 27.3413L9.22014 27.298V27.2114H9.07014ZM9.07014 26.0647V25.9147H8.92014V26.0647H9.07014ZM9.90406 26.0647V26.2147H10.1205L10.0445 26.012L9.90406 26.0647ZM8.40852 22.0759L8.26807 22.1285L8.26807 22.1285L8.40852 22.0759ZM8.48949 21.4256L8.36623 21.3401H8.36623L8.48949 21.4256ZM9.07014 21.1219L9.07005 21.2723L9.08094 21.2715L9.07014 21.1219ZM9.77625 20.8621L9.69311 20.737L9.68749 20.7411L9.77625 20.8621ZM11.1885 20.4158L11.1888 20.2657L11.1847 20.2659L11.1885 20.4158ZM11.8946 20.5923L11.8243 20.7248L12.0446 20.8417V20.5923H11.8946ZM11.8946 4.17532L11.7446 4.17514V4.17532H11.8946ZM15.4251 0.644775V0.494775L15.4249 0.494775L15.4251 0.644775ZM33.7839 0.644775L33.7841 0.494775H33.7839V0.644775ZM37.3145 4.17532H37.4645V4.17514L37.3145 4.17532ZM20.3679 2.05699V1.90699H20.2179V2.05699H20.3679ZM28.8412 2.05699H28.9912V1.90699H28.8412V2.05699ZM10.4824 22.0879L10.5588 22.217L10.5652 22.2132L10.5712 22.2088L10.4824 22.0879ZM10.0128 22.3315L9.95129 22.1947L9.823 22.2524L9.87238 22.3841L10.0128 22.3315ZM11.1885 21.828V21.6776L11.1777 21.6784L11.1885 21.828ZM11.6951 22.2697L11.5827 22.3691L11.5827 22.3691L11.6951 22.2697ZM11.716 22.2933L11.8405 22.2098L11.835 22.2015L11.8283 22.194L11.716 22.2933ZM13.3068 23.2402L13.2928 23.3896L13.3068 23.3909L13.3209 23.3896L13.3068 23.2402ZM14.8977 22.2933L14.7853 22.194L14.7787 22.2015L14.7731 22.2098L14.8977 22.2933ZM14.9186 22.2697L15.031 22.3691L15.031 22.3691L14.9186 22.2697ZM15.4252 21.828L15.436 21.678H15.4252V21.828ZM16.1313 22.0879L16.0425 22.2088L16.0483 22.2131L16.0546 22.2168L16.1313 22.0879ZM16.598 22.3315L16.7385 22.384L16.7876 22.2527L16.6599 22.1948L16.598 22.3315ZM15.2013 26.0647V26.2147H15.3054L15.3418 26.1172L15.2013 26.0647ZM11.4123 26.0647L11.2719 26.1173L11.3084 26.2147H11.4123V26.0647ZM9.77622 41.599L9.77604 41.749H9.77622V41.599ZM6.24568 38.0685H6.09568L6.09568 38.0687L6.24568 38.0685ZM16.8373 41.599V41.749H16.8375L16.8373 41.599ZM20.3678 38.0685L20.5178 38.0687V38.0685H20.3678ZM20.3678 34.538H20.5178L20.5178 34.5378L20.3678 34.538ZM15.9829 28.0072L16.0399 27.8684L15.7357 27.7436L15.8408 28.0551L15.9829 28.0072ZM16.1312 28.8891H16.2812L16.2812 28.8879L16.1312 28.8891ZM16.1312 29.5952V29.7452H16.2812V29.5952H16.1312ZM14.719 29.5952H14.569V29.7452H14.719V29.5952ZM11.8945 29.5952V29.7452H12.0445V29.5952H11.8945ZM10.4823 29.5952H10.3323V29.7452H10.4823V29.5952ZM10.4823 28.8891L10.3323 28.8879V28.8891H10.4823ZM10.6306 28.0072L10.7727 28.0551L10.8778 27.7436L10.5737 27.8684L10.6306 28.0072ZM6.24568 34.538L6.09568 34.5378V34.538H6.24568ZM20.2895 41.599L20.1849 41.4915L19.9202 41.749H20.2895V41.599ZM21.7801 38.0685H21.6301V38.0685L21.7801 38.0685ZM21.7801 34.538H21.9301V34.5378L21.7801 34.538ZM17.5434 27.2114H17.3934V27.298L17.4684 27.3413L17.5434 27.2114ZM17.5434 26.0647H17.6934V25.9147H17.5434V26.0647ZM16.7095 26.0647L16.5691 26.012L16.4931 26.2147H16.7095V26.0647ZM18.2051 22.0759L18.3455 22.1285L18.3455 22.1285L18.2051 22.0759ZM17.5434 21.1219L17.5326 21.2719L17.5435 21.2719L17.5434 21.1219ZM16.8373 20.8621L16.9262 20.741L16.9204 20.7372L16.8373 20.8621ZM15.4251 20.4158L15.4289 20.2659L15.42 20.2656L15.4111 20.2665L15.4251 20.4158ZM13.8343 21.3627L13.9466 21.4621L13.9532 21.4546L13.9588 21.4463L13.8343 21.3627ZM13.8134 21.3863L13.7006 21.2866L13.6934 21.2963L13.8134 21.3863ZM13.8133 21.3863L13.9261 21.486L13.9333 21.4763L13.8133 21.3863ZM13.3068 21.828H13.1568V21.978H13.3068V21.828ZM18.9557 2.05699H19.1057V1.90699H18.9557V2.05699ZM30.2534 2.05699V1.90699H30.1034V2.05699H30.2534ZM35.9023 6.57608L35.8638 6.72108L36.0522 6.77099V6.57608H35.9023ZM26.7872 9.91352L26.9101 9.99943L26.7872 9.91352ZM26.7872 19.6204L26.9101 19.5344L26.7872 19.6204ZM35.9023 22.9578H36.0522V22.7629L35.8638 22.8128L35.9023 22.9578ZM33.7839 21.828V21.978H33.7841L33.7839 21.828ZM40.845 14.7669L40.995 14.7671V14.7669H40.845ZM42.4072 14.7667C42.4019 11.399 40.4379 8.34208 37.377 6.93756L37.2519 7.21022C40.2063 8.56591 42.1021 11.5165 42.1072 14.7672L42.4072 14.7667ZM37.377 22.5998C40.4391 21.1948 42.4033 18.1361 42.4072 14.7671L42.1072 14.7668C42.1035 18.0186 40.2075 20.971 37.2519 22.3272L37.377 22.5998ZM37.4645 39.4807V22.4635H37.1645V39.4807H37.4645ZM33.7841 43.1613C35.8157 43.1588 37.462 41.5125 37.4645 39.4809L37.1645 39.4805C37.1622 41.3467 35.6499 42.859 33.7837 42.8613L33.7841 43.1613ZM9.77625 43.1613H33.7839V42.8613H9.77625V43.1613ZM4.6835 38.0687C4.6867 40.8799 6.96485 43.1581 9.77608 43.1613L9.77642 42.8613C7.13061 42.8582 4.98651 40.7141 4.9835 38.0683L4.6835 38.0687ZM4.6835 34.538V38.0685H4.9835V34.538H4.6835ZM8.99514 27.0815C6.33071 28.6198 4.68768 31.4611 4.6835 34.5378L4.9835 34.5382C4.98753 31.5686 6.5734 28.8261 9.14514 27.3413L8.99514 27.0815ZM8.92014 26.0647V27.2114H9.22014V26.0647H8.92014ZM9.90406 25.9147H9.07014V26.2147H9.90406V25.9147ZM8.26807 22.1285L9.76361 26.1173L10.0445 26.012L8.54897 22.0232L8.26807 22.1285ZM8.36623 21.3401C8.20617 21.5709 8.16948 21.8655 8.26807 22.1285L8.54898 22.0232C8.48494 21.8524 8.50877 21.661 8.61274 21.5111L8.36623 21.3401ZM9.07024 20.9719C8.78938 20.9717 8.52629 21.1093 8.36623 21.3401L8.61274 21.5111C8.71672 21.3612 8.88761 21.2718 9.07005 21.2719L9.07024 20.9719ZM9.68749 20.7411C9.50405 20.8758 9.28632 20.9559 9.05935 20.9723L9.08094 21.2715C9.36425 21.2511 9.63603 21.1511 9.86501 20.983L9.68749 20.7411ZM11.1847 20.2659C10.653 20.2794 10.136 20.4427 9.6932 20.7372L9.8593 20.987C10.2551 20.7238 10.7171 20.5778 11.1923 20.5658L11.1847 20.2659ZM11.9649 20.4598C11.7258 20.333 11.4594 20.2664 11.1888 20.2658L11.1881 20.5658C11.41 20.5663 11.6283 20.6209 11.8243 20.7248L11.9649 20.4598ZM11.7446 4.17532V20.5923H12.0446V4.17532H11.7446ZM15.4249 0.494775C13.3933 0.497209 11.747 2.14354 11.7446 4.17514L12.0446 4.1755C12.0468 2.3093 13.5591 0.797011 15.4253 0.794775L15.4249 0.494775ZM33.7839 0.494775H15.4251V0.794775H33.7839V0.494775ZM37.4645 4.17514C37.462 2.14354 35.8157 0.497209 33.7841 0.494775L33.7837 0.794775C35.6499 0.797011 37.1622 2.3093 37.1645 4.1755L37.4645 4.17514ZM37.4645 7.07389V4.17532H37.1645V7.07389H37.4645ZM20.3679 2.20699H28.8412V1.90699H20.3679V2.20699ZM20.5179 2.7631V2.05699H20.2179V2.7631H20.5179ZM21.074 3.31921C20.7669 3.31921 20.5179 3.07023 20.5179 2.7631H20.2179C20.2179 3.23592 20.6012 3.61921 21.074 3.61921V3.31921ZM28.1351 3.31921H21.074V3.61921H28.1351V3.31921ZM28.6912 2.7631C28.6912 3.07023 28.4422 3.31921 28.1351 3.31921V3.61921C28.6079 3.61921 28.9912 3.23592 28.9912 2.7631H28.6912ZM28.6912 2.05699V2.7631H28.9912V2.05699H28.6912ZM10.406 21.9588C10.2589 22.0458 10.1071 22.1246 9.95129 22.1947L10.0744 22.4683C10.2404 22.3936 10.4021 22.3097 10.5588 22.217L10.406 21.9588ZM11.1777 21.6784C10.8944 21.6989 10.6226 21.7989 10.3936 21.9669L10.5712 22.2088C10.7546 22.0741 10.9723 21.994 11.1993 21.9776L11.1777 21.6784ZM11.8074 22.1703C11.7227 22.0745 11.6206 21.9588 11.5242 21.8673C11.4761 21.8216 11.4253 21.7779 11.3754 21.7448C11.3307 21.7151 11.2639 21.678 11.1885 21.678V21.978C11.1711 21.978 11.1751 21.9719 11.2095 21.9947C11.2386 22.014 11.275 22.0444 11.3176 22.0848C11.4026 22.1656 11.4957 22.2707 11.5827 22.3691L11.8074 22.1703ZM11.8283 22.194L11.8074 22.1703L11.5827 22.3691L11.6036 22.3927L11.8283 22.194ZM13.3209 23.0909C12.7202 23.0344 12.1767 22.7109 11.8405 22.2098L11.5914 22.3769C11.9777 22.9528 12.6024 23.3246 13.2928 23.3896L13.3209 23.0909ZM14.7731 22.2098C14.437 22.7109 13.8935 23.0344 13.2928 23.0909L13.3209 23.3896C14.0113 23.3246 14.636 22.9528 15.0223 22.3769L14.7731 22.2098ZM14.8063 22.1703L14.7853 22.194L15.01 22.3927L15.031 22.3691L14.8063 22.1703ZM15.4252 21.678C15.3498 21.678 15.2829 21.7151 15.2382 21.7448C15.1883 21.7779 15.1376 21.8216 15.0894 21.8673C14.9931 21.9588 14.891 22.0745 14.8062 22.1703L15.031 22.3691C15.1179 22.2707 15.211 22.1656 15.2961 22.0848C15.3387 22.0444 15.3751 22.014 15.4042 21.9947C15.4385 21.9719 15.4426 21.978 15.4252 21.978V21.678ZM16.22 21.9669C15.991 21.7989 15.7193 21.6989 15.436 21.6784L15.4144 21.9776C15.6413 21.994 15.8591 22.0741 16.0425 22.2088L16.22 21.9669ZM16.6599 22.1948C16.505 22.1246 16.3541 22.0459 16.2079 21.9589L16.0546 22.2168C16.2103 22.3094 16.3711 22.3933 16.5361 22.4681L16.6599 22.1948ZM15.3418 26.1172L16.7385 22.384L16.4575 22.2789L15.0608 26.0121L15.3418 26.1172ZM11.4123 26.2147H15.2013V25.9147H11.4123V26.2147ZM9.87238 22.3841L11.2719 26.1173L11.5528 26.012L10.1533 22.2788L9.87238 22.3841ZM9.7764 41.449C7.91021 41.4468 6.39792 39.9345 6.39568 38.0683L6.09568 38.0687C6.09811 40.1003 7.74444 41.7466 9.77604 41.749L9.7764 41.449ZM16.8373 41.449H9.77622V41.749H16.8373V41.449ZM20.2178 38.0683C20.2156 39.9345 18.7033 41.4468 16.8371 41.449L16.8375 41.749C18.8691 41.7466 20.5154 40.1003 20.5178 38.0687L20.2178 38.0683ZM20.2178 34.538V38.0685H20.5178V34.538H20.2178ZM15.926 28.1459C18.5195 29.2104 20.2144 31.7347 20.2178 34.5382L20.5178 34.5378C20.5142 31.6127 18.7459 28.979 16.0399 27.8684L15.926 28.1459ZM16.2812 28.8879C16.2787 28.572 16.226 28.2586 16.125 27.9592L15.8408 28.0551C15.9316 28.3243 15.9789 28.6062 15.9812 28.8903L16.2812 28.8879ZM16.2812 29.5952V28.8891H15.9812V29.5952H16.2812ZM14.719 29.7452H16.1312V29.4452H14.719V29.7452ZM14.569 28.8891V29.5952H14.869V28.8891H14.569ZM13.3068 27.6269C14.0039 27.6269 14.569 28.192 14.569 28.8891H14.869C14.869 28.0263 14.1695 27.3269 13.3068 27.3269V27.6269ZM12.0445 28.8891C12.0445 28.192 12.6097 27.6269 13.3068 27.6269V27.3269C12.444 27.3269 11.7445 28.0263 11.7445 28.8891H12.0445ZM12.0445 29.5952V28.8891H11.7445V29.5952H12.0445ZM10.4823 29.7452H11.8945V29.4452H10.4823V29.7452ZM10.3323 28.8891V29.5952H10.6323V28.8891H10.3323ZM10.4885 27.9592C10.3875 28.2586 10.3348 28.572 10.3323 28.8879L10.6323 28.8903C10.6346 28.6062 10.682 28.3243 10.7727 28.0551L10.4885 27.9592ZM6.39568 34.5382C6.39914 31.7347 8.09401 29.2104 10.6876 28.1459L10.5737 27.8684C7.86765 28.979 6.09929 31.6127 6.09568 34.5378L6.39568 34.5382ZM6.39568 38.0685V34.538H6.09568V38.0685H6.39568ZM33.7839 41.749C35.0367 41.749 36.0522 40.7335 36.0522 39.4807H35.7523C35.7523 40.5678 34.871 41.449 33.7839 41.449V41.749ZM20.2895 41.749H33.7839V41.449H20.2895V41.749ZM21.6301 38.0685C21.6304 39.3579 21.1091 40.5925 20.1849 41.4915L20.3941 41.7066C21.3764 40.7511 21.9304 39.4388 21.9301 38.0685L21.6301 38.0685ZM21.6301 34.538V38.0685H21.9301V34.538H21.6301ZM17.4684 27.3413C20.0402 28.8261 21.6261 31.5686 21.6301 34.5382L21.9301 34.5378C21.9259 31.4611 20.2829 28.6198 17.6184 27.0815L17.4684 27.3413ZM17.3934 26.0647V27.2114H17.6934V26.0647H17.3934ZM16.7095 26.2147H17.5434V25.9147H16.7095V26.2147ZM18.0646 22.0232L16.5691 26.012L16.85 26.1173L18.3455 22.1285L18.0646 22.0232ZM18.0008 21.5111C18.1048 21.661 18.1286 21.8524 18.0646 22.0232L18.3455 22.1285C18.4441 21.8655 18.4074 21.5709 18.2474 21.3401L18.0008 21.5111ZM17.5435 21.2719C17.726 21.2718 17.8969 21.3612 18.0008 21.5111L18.2474 21.3401C18.0873 21.1093 17.8242 20.9717 17.5433 20.9719L17.5435 21.2719ZM16.7486 20.983C16.9776 21.1511 17.2493 21.2511 17.5326 21.2715L17.5542 20.9723C17.3273 20.9559 17.1095 20.8758 16.9261 20.7411L16.7486 20.983ZM15.4213 20.5658C15.8964 20.5778 16.3585 20.7238 16.7543 20.987L16.9204 20.7372C16.4775 20.4427 15.9605 20.2794 15.4289 20.2659L15.4213 20.5658ZM13.9588 21.4463C14.2949 20.9452 14.8385 20.6217 15.4392 20.5651L15.4111 20.2665C14.7207 20.3314 14.096 20.7032 13.7097 21.2791L13.9588 21.4463ZM13.9257 21.4857L13.9466 21.4621L13.7219 21.2633L13.701 21.2869L13.9257 21.4857ZM13.9333 21.4763L13.9334 21.4763L13.6934 21.2963L13.6933 21.2963L13.9333 21.4763ZM13.3068 21.978C13.3822 21.978 13.449 21.941 13.4937 21.9113C13.5436 21.8781 13.5944 21.8344 13.6425 21.7887C13.7388 21.6972 13.841 21.5815 13.9257 21.4857L13.701 21.287C13.614 21.3853 13.5209 21.4904 13.4359 21.5712C13.3933 21.6117 13.3569 21.642 13.3277 21.6613C13.2934 21.6841 13.2894 21.678 13.3068 21.678V21.978ZM13.1568 4.17532V21.828H13.4568V4.17532H13.1568ZM15.4251 1.90699C14.1724 1.90699 13.1568 2.92255 13.1568 4.17532H13.4568C13.4568 3.08824 14.338 2.20699 15.4251 2.20699V1.90699ZM18.9557 1.90699H15.4251V2.20699H18.9557V1.90699ZM19.1057 2.7631V2.05699H18.8057V2.7631H19.1057ZM21.074 4.73142C19.9869 4.73142 19.1057 3.85018 19.1057 2.7631H18.8057C18.8057 4.01586 19.8212 5.03142 21.074 5.03142V4.73142ZM28.1351 4.73142H21.074V5.03142H28.1351V4.73142ZM30.1034 2.7631C30.1034 3.85018 29.2221 4.73142 28.1351 4.73142V5.03142C29.3878 5.03142 30.4034 4.01586 30.4034 2.7631H30.1034ZM30.1034 2.05699V2.7631H30.4034V2.05699H30.1034ZM33.7839 1.90699H30.2534V2.20699H33.7839V1.90699ZM36.0522 4.17532C36.0522 2.92255 35.0367 1.90699 33.7839 1.90699V2.20699C34.871 2.20699 35.7523 3.08824 35.7523 4.17532H36.0522ZM36.0522 6.57608V4.17532H35.7523V6.57608H36.0522ZM26.9101 9.99943C28.911 7.13601 32.487 5.82668 35.8638 6.72108L35.9407 6.43108C32.4421 5.50444 28.7372 6.86097 26.6642 9.8276L26.9101 9.99943ZM26.9101 19.5344C24.9092 16.671 24.9092 12.8629 26.9101 9.99943L26.6642 9.8276C24.5912 12.7942 24.5912 16.7396 26.6642 19.7063L26.9101 19.5344ZM35.8638 22.8128C32.487 23.7072 28.911 22.3979 26.9101 19.5344L26.6642 19.7063C28.7372 22.6729 32.4421 24.0294 35.9407 23.1028L35.8638 22.8128ZM36.0522 39.4807V22.9578H35.7523V39.4807H36.0522ZM33.7839 21.678C29.967 21.678 26.8728 18.5838 26.8728 14.7669H26.5728C26.5728 18.7495 29.8013 21.978 33.7839 21.978V21.678ZM40.695 14.7668C40.6908 18.582 37.599 21.6738 33.7837 21.678L33.7841 21.978C37.7647 21.9736 40.9906 18.7478 40.995 14.7671L40.695 14.7668ZM33.7839 7.85586C37.6008 7.85586 40.695 10.9501 40.695 14.7669H40.995C40.995 10.7844 37.7665 7.55586 33.7839 7.55586V7.85586ZM26.8728 14.7669C26.8728 10.9501 29.967 7.85586 33.7839 7.85586V7.55586C29.8013 7.55586 26.5728 10.7844 26.5728 14.7669H26.8728Z" fill="black"/>
<path d="M30.4081 24.9172L27.5836 28.4478C27.4139 28.6597 27.3808 28.9502 27.4984 29.195C27.616 29.4397 27.8636 29.5953 28.1351 29.5952H28.8412V34.538H30.2534V28.8891C30.2545 28.5197 29.9707 28.2118 29.6024 28.183L30.9595 26.4883L32.3167 28.183C31.9483 28.2118 31.6645 28.5197 31.6656 28.8891V35.9502H33.0778V29.5952H33.784C34.0555 29.5953 34.303 29.4397 34.4206 29.195C34.5383 28.9502 34.5051 28.6597 34.3354 28.4478L31.511 24.9172C31.3721 24.7578 31.171 24.6664 30.9595 24.6664C30.7481 24.6664 30.547 24.7578 30.4081 24.9172Z" fill="black"/>
<path d="M24.45 19.2684C24.311 19.109 24.1099 19.0175 23.8985 19.0175C23.687 19.0175 23.4859 19.109 23.347 19.2684L20.5226 22.7989C20.3529 23.0109 20.3197 23.3014 20.4374 23.5461C20.555 23.7908 20.8025 23.9464 21.0741 23.9463H21.7802V28.8891H23.1924V23.2402C23.1935 22.8708 22.9097 22.5629 22.5413 22.5341L23.8985 20.8395L25.2556 22.5341C24.8873 22.5629 24.6035 22.8708 24.6046 23.2402V30.3013H26.0168V23.9463H26.7229C26.9944 23.9464 27.242 23.7908 27.3596 23.5461C27.4772 23.3014 27.4441 23.0109 27.2744 22.7989L24.45 19.2684Z" fill="black"/>
<path d="M21.7097 12.9544C21.8274 12.7098 21.7945 12.4193 21.625 12.2073L18.8005 8.67676C18.6616 8.51736 18.4605 8.42587 18.2491 8.42587C18.0376 8.42587 17.8365 8.51736 17.6976 8.67676L14.8732 12.2073C14.7034 12.4194 14.6703 12.71 14.7881 12.9548C14.9059 13.1996 15.1537 13.3551 15.4253 13.3547H16.1315V18.2975H17.5437V12.6486C17.5448 12.2792 17.261 11.9713 16.8926 11.9425L18.2498 10.2479L19.6069 11.9425C19.2386 11.9713 18.9548 12.2792 18.9559 12.6486V19.7097H20.3681V13.3547H21.0742C21.3453 13.3543 21.5923 13.1988 21.7097 12.9544Z" fill="black"/>
<path d="M24.6045 31.7135H26.0167V33.1257H24.6045V31.7135Z" fill="black"/>
<path d="M24.6045 34.538H26.0167V35.9502H24.6045V34.538Z" fill="black"/>
<path d="M31.6655 37.3624H33.0777V38.7746H31.6655V37.3624Z" fill="black"/>
<path d="M28.8413 35.9502H30.2535V37.3624H28.8413V35.9502Z" fill="black"/>
</g>
<defs>
<clipPath id="clip0_50_1032">
<rect width="46" height="46" fill="white" transform="translate(0 0.644775)"/>
</clipPath>
</defs>
</svg>
