<svg width="270" height="164" viewBox="0 0 270 164" fill="none" xmlns="http://www.w3.org/2000/svg">
<path d="M116.552 101.685C113.328 102.129 110.941 101.18 110.1 97.9865C109.263 94.8246 110.795 92.0707 113.726 89.3157C110.508 88.4077 108.048 86.9289 108.332 83.0565C108.577 79.7358 110.519 77.4891 113.441 75.9379C113.744 75.8358 114.039 75.7443 114.341 75.6422C115.874 75.3806 117.553 75.2351 118.515 76.1852C120.278 77.9164 120.646 76.5413 121.912 74.8545C123.653 72.5186 124.087 71.403 121.551 70.4548C120.63 70.1037 120.246 68.6684 119.625 67.7273C119.572 67.2981 119.519 66.8688 119.459 66.4501C119.835 63.325 121.07 60.6468 124.13 59.0737C127.526 57.3295 129.974 58.4478 132.211 61.0041C133.664 57.2749 135.674 54.4339 139.373 53.945C142.536 53.5382 144.325 55.1526 145.224 57.9378C145.261 58.2399 145.289 58.5367 145.327 58.8388C144.955 60.2564 144.992 62.0327 144.143 63.007C141.86 65.6423 143.344 65.7946 144.91 66.9382C146.794 68.3136 147.389 67.7647 148.673 65.6907C149.397 64.5101 150.939 63.7819 152.114 62.8379C152.432 62.7304 152.757 62.6123 153.075 62.5047C156.339 61.9807 158.705 62.9615 159.567 66.1234C160.42 69.28 158.956 72.0441 156.039 74.7778C159.08 75.8033 161.671 77.1383 161.384 81.0531C161.14 84.3738 159.215 86.6311 156.333 88.2351C155.967 88.3588 155.608 88.4718 155.252 88.6007C153.945 88.4794 152.273 88.8211 151.41 88.1357C149.546 86.6541 149.008 87.5315 147.683 89.611C146.399 91.6266 145.674 92.5262 147.927 93.4704C148.957 93.9005 149.368 95.4841 150.053 96.5363C150.098 96.902 150.143 97.2676 150.197 97.6386C149.964 100.98 148.547 103.729 145.293 105.276C142.062 106.807 139.643 105.928 137.616 103.259C135.981 106.925 133.899 109.915 130.054 110.304C127.101 110.598 125.401 109.037 124.449 106.485C124.392 106.024 124.344 105.568 124.28 105.118C124.437 102.762 125.467 100.642 127.089 98.7519C124.491 96.6904 122.061 95.3917 119.408 100.065C119.088 100.629 118.205 100.919 117.577 101.33C117.22 101.459 116.886 101.572 116.552 101.685ZM136.979 99.3748C136.118 97.2311 141.98 95.5392 138.35 93.371C136.499 92.2659 135.567 92.7633 134.24 94.8269C131.444 99.1509 137.185 96.8868 136.979 99.3748ZM117.609 88.0358C119.684 87.0029 120.79 93.006 123.626 87.3348C125.877 82.8224 121.461 84.8206 120.93 83.0042C120.289 85.0593 118.792 86.2116 117.609 88.0358ZM152.198 76.4075C147.536 74.3978 147.63 74.4823 146.724 75.6C143.593 79.4907 147.139 79.6335 148.75 81.4822C149.404 79.199 150.909 77.9035 152.198 76.4075ZM132.849 64.6973C131.864 66.7115 130.963 68.4072 129.537 70.0736C131.554 69.5075 131.89 74.0399 135.024 70.1068C138.895 65.237 132.559 67.1803 132.849 64.6973ZM133.387 80.8048C132.741 81.9426 131.013 83.1065 133.19 83.77C134.292 84.1096 134.995 85.6442 136.381 83.188C137.326 81.5186 137.666 80.8489 136.044 80.0556C134.828 79.4566 134.088 78.829 133.387 80.8048Z" fill="#C8D4FF"/>
<path d="M143.108 60.7832C143.07 60.4811 143.042 60.1842 143.005 59.8821C143.145 59.611 143.36 59.3395 143.426 59.0688C144.216 55.5383 145.965 52.7938 149.596 52.0139C152.549 51.3802 154.62 52.5855 155.345 55.372C156.24 58.7888 154.422 61.5071 151.461 63.7584C151.234 63.9344 151.064 64.2322 150.87 64.4718C150.552 64.5792 150.227 64.6974 149.909 64.8049C146.913 64.5584 144.657 63.2001 143.108 60.7832Z" fill="#C8D4FF"/>
<path d="M152.423 99.5798C152.377 99.2141 152.332 98.8485 152.278 98.4775C153.057 95.2661 154.803 92.6389 157.476 90.5432C157.842 90.4196 158.201 90.3066 158.557 90.1778C159.455 90.3381 160.377 90.4241 161.229 90.6908C163.642 91.4488 165.049 93.1181 164.798 96.0515C164.566 98.7302 163.166 100.868 160.745 102.257C158.092 103.775 155.875 103.324 154.089 101.608C153.455 101.028 152.972 100.272 152.423 99.5798Z" fill="#C8D4FF"/>
<path d="M126.498 103.182C126.555 103.643 126.603 104.099 126.666 104.55C126.405 105.251 126.137 105.963 125.867 106.658C124.728 109.644 122.831 111.784 119.8 112.253C117.02 112.679 115.094 111.5 114.327 108.911C113.498 106.093 114.732 103.548 117.099 101.315C117.655 100.788 118.229 100.271 118.785 99.7436C119.118 99.6307 119.459 99.5073 119.793 99.3944C122.715 99.5829 124.91 100.92 126.498 103.182Z" fill="#C8D4FF"/>
<path d="M112.115 73.7062C111.813 73.8083 111.518 73.8998 111.216 74.0019C107.901 73.4493 104.647 72.7851 104.903 68.2183C105.047 65.5611 106.434 63.3861 108.871 61.9912C113.034 59.6236 115.203 61.963 117.256 64.4991C117.309 64.9284 117.362 65.3576 117.422 65.7763C116.532 68.9671 114.71 71.5789 112.115 73.7062Z" fill="#C8D4FF"/>
<path d="M153.597 115.403C151.734 118.36 147.792 119.692 145.37 118.192C143.074 116.765 142.61 113.072 144.39 110.259C146.26 107.292 150.187 105.965 152.617 107.47C154.897 108.902 155.362 112.596 153.597 115.403Z" fill="#C8D4FF"/>
<path d="M97.5388 88.7125C95.0884 87.313 94.6352 83.3753 96.6038 80.5403C98.48 77.8277 102.141 76.6236 104.475 77.9547C106.925 79.3542 107.379 83.2919 105.41 86.1269C103.543 88.8448 99.8731 90.0436 97.5388 88.7125Z" fill="#C8D4FF"/>
<path d="M108.728 98.708C106.931 101.659 103.011 103.05 100.564 101.608C98.2505 100.245 97.7401 96.583 99.4466 93.7702C101.244 90.8191 105.163 89.4282 107.611 90.8702C109.933 92.2386 110.451 95.8899 108.728 98.708Z" fill="#C8D4FF"/>
<path d="M164.87 86.0872C162.524 84.4541 162.334 80.4362 164.472 77.7015C166.538 75.0573 170.244 74.0864 172.428 75.6089C174.774 77.242 174.957 81.2705 172.826 83.9946C170.768 86.6441 167.063 87.6149 164.87 86.0872Z" fill="#C8D4FF"/>
<path d="M124.031 45.9C126.387 47.1408 127.038 50.738 125.415 53.6136C123.737 56.5902 119.844 58.1293 117.321 56.8045C114.824 55.4954 114.268 51.6009 116.179 48.7028C117.993 45.9535 121.648 44.6435 124.031 45.9Z" fill="#C8D4FF"/>
<path d="M170.082 70.6326C168.157 73.5521 164.212 74.7945 161.864 73.2196C159.617 71.7186 159.243 68.0194 161.07 65.2488C162.995 62.3294 166.941 61.087 169.288 62.6618C171.536 64.1629 171.903 67.8727 170.082 70.6326Z" fill="#C8D4FF"/>
<path d="M137.12 42.9266C139.552 44.374 139.948 48.3229 137.944 51.137C136.025 53.8394 132.349 54.9906 130.058 53.6115C127.626 52.1641 127.23 48.2152 129.225 45.3958C131.146 42.7093 134.829 41.5475 137.12 42.9266Z" fill="#C8D4FF"/>
<path d="M140.641 118.512C138.761 121.458 134.83 122.753 132.431 121.237C130.149 119.789 129.718 116.101 131.51 113.309C133.39 110.363 137.312 109.062 139.713 110.595C141.995 112.042 142.424 115.715 140.641 118.512Z" fill="#C8D4FF"/>
<path d="M103.181 106.376C105.541 103.548 108.055 102.773 110.608 104.321C113.044 105.801 113.209 109.349 110.972 112.101C108.627 114.981 106.008 115.577 103.601 113.863C101.147 112.108 101.287 109.418 103.181 106.376Z" fill="#C8D4FF"/>
<path d="M158.604 114.768C156.225 112.998 155.772 110.536 157.667 107.379C159.473 104.376 163.005 103.216 165.33 104.88C167.754 106.618 168.041 109.278 165.982 112.308C163.918 115.365 161.316 116.013 158.604 114.768Z" fill="#C8D4FF"/>
<path d="M102.138 72.8244C99.9479 75.7515 97.4254 76.8608 94.7844 75.3343C92.1703 73.8236 91.7944 71.1838 93.7941 68.0559C95.7958 64.9439 98.4482 64.0144 101.083 65.4932C103.738 66.9984 103.888 69.6234 102.138 72.8244Z" fill="#C8D4FF"/>
<path d="M127.422 121.425C125.262 124.326 122.718 125.467 120.064 124.036C117.444 122.61 117.022 120.003 118.814 116.796C120.523 113.733 124.053 112.465 126.45 114.025C128.965 115.669 129.164 118.219 127.422 121.425Z" fill="#C8D4FF"/>
<path d="M168.375 98.7446C166.022 96.916 165.623 94.4266 167.563 91.2961C169.414 88.3197 172.96 87.212 175.243 88.9403C177.626 90.7424 177.857 93.4126 175.769 96.4113C173.644 99.4472 171.041 100.021 168.375 98.7446Z" fill="#C8D4FF"/>
<path d="M111.182 49.5812C113.492 51.4578 113.864 54.0057 111.739 57.0417C109.607 60.0884 106.92 60.8478 104.409 59.2212C101.872 57.5788 101.694 54.8657 103.794 51.8298C105.922 48.7513 108.515 48.2309 111.182 49.5812Z" fill="#C8D4FF"/>
<path d="M150.781 47.5608C148.378 50.6427 145.821 51.6725 143.238 50.0769C140.664 48.4864 140.372 45.7931 142.444 42.7074C144.515 39.6216 147.202 38.7715 149.788 40.3248C152.419 41.9043 152.401 44.5778 150.781 47.5608Z" fill="#C8D4FF"/>
<path d="M166.656 57.5601C164.428 60.4503 161.938 61.4162 159.277 59.9959C156.732 58.644 156.374 55.1447 158.511 52.3186C160.724 49.3754 163.351 48.5786 165.86 50.1747C168.395 51.7865 168.448 54.4278 166.656 57.5601Z" fill="#C8D4FF"/>
<path d="M88.3126 103.929C86.2385 102.279 85.6542 99.9607 87.3831 97.2079C89.1141 94.4711 91.6981 93.5481 94.007 94.8202C96.3248 96.0976 96.6854 98.682 94.9704 101.413C93.2593 104.177 90.8008 104.776 88.3126 103.929Z" fill="#C8D4FF"/>
<path d="M107.321 126.667C105.289 125.028 104.696 122.705 106.432 119.941C108.17 117.194 110.779 116.271 113.095 117.532C115.421 118.815 115.784 121.415 114.071 124.162C112.339 126.958 109.873 127.567 107.321 126.667Z" fill="#C8D4FF"/>
<path d="M178.061 102.288C179.83 103.876 180.267 106.137 178.615 108.922C177.113 111.441 173.412 112.577 171.61 111.058C169.624 109.386 169.4 106.97 171.149 104.243C172.632 101.904 175.986 100.977 178.061 102.288Z" fill="#C8D4FF"/>
<path d="M98.6979 59.7155C96.4977 62.2985 94.103 63.3066 91.8727 61.8894C89.6603 60.4827 89.3808 57.8842 91.2054 55.2128C93.023 52.5519 95.6153 51.7339 97.8505 53.1246C100.104 54.5258 100.034 57.0515 98.6979 59.7155Z" fill="#C8D4FF"/>
<path d="M162.333 37.5443C164.363 39.1675 164.947 41.4861 163.2 44.2285C161.469 46.9655 158.876 47.8833 156.574 46.6005C154.263 45.3124 153.911 42.7331 155.627 40.0015C157.356 37.2486 159.805 36.6441 162.333 37.5443Z" fill="#C8D4FF"/>
<path d="M134.364 37.5333C132.377 40.0355 130.017 41.123 127.697 39.8442C125.392 38.5601 125.026 35.9993 126.736 33.2755C128.453 30.541 131.034 29.6276 133.337 30.8959C135.664 32.164 135.763 34.6411 134.364 37.5333Z" fill="#C8D4FF"/>
<path d="M142.94 131.171C140.801 133.642 138.386 134.682 136.138 133.255C133.908 131.838 133.624 129.208 135.463 126.515C137.303 123.838 139.925 122.994 142.171 124.406C144.433 125.812 144.431 128.348 142.94 131.171Z" fill="#C8D4FF"/>
<path d="M181.417 60.2675C183.448 61.9066 184.042 64.2304 182.305 66.994C180.567 69.7417 177.958 70.6648 175.64 69.3874C173.314 68.1047 172.958 65.4936 174.68 62.7513C176.398 59.9772 178.864 59.3673 181.417 60.2675Z" fill="#C8D4FF"/>
<path d="M91.0307 81.8642C93.0996 83.6726 93.5886 86.0233 91.7506 88.697C89.9354 91.3547 87.3486 92.1876 85.1163 90.7986C82.8999 89.4042 82.6297 86.8141 84.4339 84.1352C86.268 81.4297 88.7034 80.979 91.0307 81.8642Z" fill="#C8D4FF"/>
<path d="M178.635 82.3704C176.603 80.7313 176.017 78.3968 177.762 75.6386C179.5 72.8909 182.109 71.9678 184.436 73.2505C186.763 74.5332 187.11 77.139 185.396 79.8865C183.646 82.6713 181.172 83.2759 178.635 82.3704Z" fill="#C8D4FF"/>
<path d="M121.494 40.5475C119.457 43.1084 117.09 44.2065 114.776 42.9171C112.471 41.6329 112.112 39.0615 113.823 36.3377C115.54 33.6032 118.113 32.7004 120.423 33.9581C122.769 35.2367 122.829 37.7352 121.494 40.5475Z" fill="#C8D4FF"/>
<path d="M155.858 128.112C153.756 130.546 151.451 131.474 149.088 130.259C146.94 129.17 146.611 125.437 148.471 123.184C150.52 120.719 153.016 119.859 155.195 121.335C157.359 122.816 157.353 125.32 155.858 128.112Z" fill="#C8D4FF"/>
<path d="M187.472 86.5997C189.514 88.1862 189.774 90.3583 187.932 92.9427C186.061 95.5538 183.781 96.0676 181.689 94.6139C179.724 93.2497 179.587 91.0611 181.229 88.6101C183.004 85.9571 185.185 85.4438 187.472 86.5997Z" fill="#C8D4FF"/>
<path d="M162.327 126.908C160.173 125.285 159.803 123.166 161.559 120.561C163.315 117.956 165.553 117.241 167.728 118.567C169.913 119.899 170.124 122.145 168.41 124.76C166.646 127.434 164.473 127.863 162.327 126.908Z" fill="#C8D4FF"/>
<path d="M82.1899 77.5276C80.1977 75.9411 79.9486 73.7904 81.7938 71.238C83.6598 68.6538 85.9091 68.1667 87.976 69.6203C89.9248 70.9897 90.027 73.157 88.3875 75.5653C86.6038 78.2128 84.4518 78.6835 82.1899 77.5276Z" fill="#C8D4FF"/>
<path d="M178.107 47.8205C180.171 49.3166 180.556 51.4298 178.771 54.0616C176.969 56.6988 174.735 57.313 172.579 55.9392C170.565 54.6495 170.342 52.5144 171.916 50.0373C173.628 47.3475 175.779 46.7283 178.107 47.8205Z" fill="#C8D4FF"/>
<path d="M102.222 45.7666C100.005 44.2393 99.5423 42.1689 101.283 39.5109C103.027 36.8688 105.233 36.1646 107.426 37.5011C109.465 38.7323 109.74 40.8248 108.228 43.3227C106.578 46.0492 104.441 46.6471 102.222 45.7666Z" fill="#C8D4FF"/>
<path d="M129.752 133.969C127.653 136.625 125.47 137.33 123.351 135.875C121.197 134.4 121.189 132.05 123.046 129.517C124.798 127.127 126.957 126.572 129.001 127.82C131.244 129.215 131.173 131.459 129.752 133.969Z" fill="#C8D4FF"/>
<path d="M91.6629 116.443C89.4683 114.826 89.1219 112.692 90.9343 110.076C92.7536 107.45 94.991 106.868 97.1333 108.262C99.1327 109.573 99.3144 111.714 97.7325 114.185C95.9924 116.917 93.8316 117.382 91.6629 116.443Z" fill="#C8D4FF"/>
<path d="M146.779 34.4884C144.821 36.9478 142.671 37.6575 140.562 36.2082C138.426 34.7431 138.414 32.4357 140.258 29.9237C141.995 27.5555 144.13 26.9996 146.142 28.2584C148.357 29.6224 148.373 31.829 146.779 34.4884Z" fill="#C8D4FF"/>
<path d="M175.408 123.324C173.726 121.699 173.353 119.682 175.012 117.507C176.621 115.391 178.812 114.766 180.587 116.136C182.177 117.353 182.342 119.424 180.908 121.482C179.339 123.725 177.312 124.062 175.408 123.324Z" fill="#C8D4FF"/>
<path d="M79.5932 64.2076C77.8914 62.8954 77.5049 60.9731 79.047 58.7135C80.4478 56.6507 82.4592 55.9791 84.225 57.0048C86.1425 58.12 86.3928 60.2125 84.8596 62.4774C83.4568 64.5243 81.5549 65.0098 79.5932 64.2076Z" fill="#C8D4FF"/>
<path d="M174.626 35.3373C176.223 36.4697 176.779 38.2269 175.57 40.4318C174.237 42.8441 172.125 43.7068 170.14 42.714C168.137 41.7106 167.847 39.5653 169.318 37.2638C170.67 35.143 172.591 34.6097 174.626 35.3373Z" fill="#C8D4FF"/>
<path d="M190.944 105.326C189.322 107.424 187.335 108.377 185.395 107.292C183.464 106.214 183.212 104.045 184.671 101.763C186.019 99.6665 188.083 98.9358 189.899 99.8136C191.909 100.791 192.056 102.854 190.944 105.326Z" fill="#C8D4FF"/>
<path d="M94.0557 40.9349C95.6417 42.0463 96.1943 43.7718 94.9918 45.9663C93.6729 48.3574 91.5857 49.2201 89.6093 48.2324C87.631 47.2289 87.3222 45.1312 88.7929 42.8295C90.1471 40.7245 92.0343 40.186 94.0557 40.9349Z" fill="#C8D4FF"/>
<path d="M100.5 126.903C98.8833 128.973 96.9015 129.9 95 128.794C93.1075 127.694 92.8601 125.557 94.338 123.302C95.6975 121.227 97.7406 120.528 99.5331 121.422C101.511 122.41 101.663 124.447 100.5 126.903Z" fill="#C8D4FF"/>
<path d="M159.449 30.9455C157.976 32.9094 156.124 33.8088 154.259 32.9313C152.218 31.9644 151.825 29.8604 153.254 27.5466C154.681 25.217 156.838 24.4966 158.761 25.6443C160.507 26.7027 160.6 28.6596 159.449 30.9455Z" fill="#C8D4FF"/>
<path d="M110.915 138.676C109.246 137.295 108.806 135.342 110.334 133.104C111.848 130.887 114.003 130.241 115.847 131.431C117.521 132.52 117.765 134.565 116.45 136.648C115.004 138.95 112.998 139.462 110.915 138.676Z" fill="#C8D4FF"/>
<path d="M152.944 141.941C151.261 140.713 151.013 138.976 152.529 136.833C153.902 134.887 155.636 134.376 157.282 135.375C159.117 136.486 159.245 138.33 157.753 140.457C156.383 142.434 154.706 142.802 152.944 141.941Z" fill="#C8D4FF"/>
<path d="M193.291 58.3298C195.161 59.5936 195.532 61.2563 194.073 63.4466C192.759 65.4137 191.063 66.0202 189.374 65.0843C187.518 64.0643 187.282 62.2896 188.694 60.1154C190.019 58.1112 191.671 57.7434 193.291 58.3298Z" fill="#C8D4FF"/>
<path d="M144.435 138.451C146.003 139.61 146.334 141.22 145.044 143.245C143.643 145.44 141.842 146.074 140.017 144.969C138.361 143.964 138.142 142.258 139.407 140.233C140.813 138.011 142.566 137.526 144.435 138.451Z" fill="#C8D4FF"/>
<path d="M196.403 71.2308C198.273 72.4946 198.646 74.1732 197.179 76.3742C195.859 78.3519 194.155 78.9691 192.449 78.0226C190.584 76.9973 190.337 75.2015 191.772 73.0113C193.088 71.0018 194.754 70.6127 196.403 71.2308Z" fill="#C8D4FF"/>
<path d="M130.119 24.1281C128.676 25.991 127.035 26.6614 125.363 25.661C123.52 24.5606 123.405 22.694 124.929 20.6132C126.324 18.6921 128.071 18.2759 129.677 19.3402C131.301 20.415 131.304 22.1124 130.119 24.1281Z" fill="#C8D4FF"/>
<path d="M77.4277 86.2825C78.9402 87.4684 79.2238 89.0945 77.8737 91.0989C76.3822 93.3001 74.5368 93.7748 72.8198 92.5421C71.2318 91.4148 71.2244 89.6126 72.6162 87.6769C74.0467 85.7198 75.7113 85.389 77.4277 86.2825Z" fill="#C8D4FF"/>
<path d="M190.981 50.29C189.676 51.9987 188.081 52.7697 186.517 51.981C184.776 51.1028 184.525 49.2738 185.847 47.2945C187.036 45.5174 188.767 44.9739 190.291 45.8424C191.826 46.732 191.865 48.3923 190.981 50.29Z" fill="#C8D4FF"/>
<path d="M142.912 20.8929C141.554 22.5117 139.957 23.2669 138.457 22.3982C136.806 21.44 136.594 19.5894 137.975 17.6892C139.201 16.0073 140.941 15.469 142.402 16.4333C143.855 17.3924 143.852 19.0424 142.912 20.8929Z" fill="#C8D4FF"/>
<path d="M80.3987 99.1309C81.9689 100.248 82.341 101.852 81.0443 103.888C79.6293 106.105 77.7975 106.691 76.0139 105.522C74.3751 104.453 74.2813 102.689 75.6195 100.721C76.9787 98.7221 78.6335 98.3119 80.3987 99.1309Z" fill="#C8D4FF"/>
<path d="M165.995 138.692C164.571 137.485 164.218 135.833 165.616 133.887C166.859 132.16 168.57 131.606 170.056 132.511C171.696 133.521 171.886 135.327 170.512 137.273C169.264 139.028 167.642 139.369 165.995 138.692Z" fill="#C8D4FF"/>
<path d="M73.9269 73.3927C75.3852 74.5467 75.8147 76.0814 74.7215 77.8826C73.5119 79.8803 71.6709 80.5191 70.0567 79.5089C68.605 78.6093 68.4476 76.8667 69.6014 75.0865C70.783 73.2637 72.407 73.0127 73.9269 73.3927Z" fill="#C8D4FF"/>
<path d="M112.487 28.8536C110.828 27.5519 110.506 25.9475 111.833 23.9594C113.292 21.7693 115.126 21.2735 116.848 22.4795C118.425 23.5854 118.462 25.3608 117.095 27.296C115.701 29.2738 114.041 29.5038 112.487 28.8536Z" fill="#C8D4FF"/>
<path d="M195.369 90.6114C194.082 89.3082 193.768 87.635 195.25 85.7682C196.539 84.1409 198.272 83.6297 199.679 84.6356C201.206 85.7417 201.333 87.5694 199.882 89.4254C198.581 91.0899 196.956 91.3992 195.369 90.6114Z" fill="#C8D4FF"/>
<path d="M83.8621 116.967C82.4507 118.554 80.8616 119.24 79.3564 118.324C77.8601 117.412 77.6231 115.695 78.7854 113.902C80.0801 111.907 81.9223 111.326 83.5078 112.422C84.9285 113.392 84.8992 115.1 83.8621 116.967Z" fill="#C8D4FF"/>
<path d="M131.194 141.575C132.74 142.898 133.123 144.524 131.765 146.464C130.554 148.181 128.845 148.75 127.362 147.861C125.726 146.883 125.538 145.093 126.862 143.147C128.069 141.399 129.697 141.179 131.194 141.575Z" fill="#C8D4FF"/>
<path d="M104.113 30.1909C102.679 31.7942 101.067 32.4965 99.5943 31.5109C98.1416 30.5518 97.9662 28.7965 99.1981 27.0296C100.432 25.2786 102.17 24.7244 103.648 25.6834C105.109 26.6478 105.094 28.3349 104.113 30.1909Z" fill="#C8D4FF"/>
<path d="M193.137 117.789C191.835 119.455 190.413 120.018 189.033 119.175C187.653 118.333 187.474 116.811 188.579 115.162C189.684 113.513 191.197 113.018 192.584 113.85C193.98 114.687 193.998 116.172 193.137 117.789Z" fill="#C8D4FF"/>
<path d="M118.596 148.763C117.504 150.316 116.333 150.894 115.124 150.358C113.74 149.749 113.421 148.441 114.407 146.84C115.387 145.25 116.736 144.836 118.026 145.626C119.183 146.336 119.096 147.583 118.596 148.763Z" fill="#C8D4FF"/>
<path d="M98.1552 136.793C99.5808 135.052 101.002 134.622 102.306 135.581C103.636 136.557 103.58 138.117 102.364 139.671C101.283 141.055 99.9036 141.422 98.6625 140.632C97.2606 139.747 97.3303 138.298 98.1552 136.793Z" fill="#C8D4FF"/>
<path d="M86.4129 129.374C85.3078 130.759 84.0558 131.289 82.8018 130.462C81.7265 129.74 81.5872 128.478 82.4587 127.148C83.4557 125.626 84.8029 125.196 86.046 126.002C87.1442 126.708 87.1395 127.944 86.4129 129.374Z" fill="#C8D4FF"/>
<path d="M155.198 17.4618C154.174 18.7024 152.983 19.2542 151.841 18.5961C150.538 17.8433 150.397 16.4327 151.508 14.9636C152.455 13.7073 153.758 13.3249 154.856 14.0892C155.933 14.8271 155.935 16.0526 155.198 17.4618Z" fill="#C8D4FF"/>
<path d="M171.425 27.4188C170.02 29.186 168.6 29.5 167.302 28.5139C166.131 27.6175 166.121 26.196 167.191 24.7326C168.431 23.0298 169.898 22.774 171.197 23.76C172.391 24.6405 172.273 26.0307 171.425 27.4188Z" fill="#C8D4FF"/>
<path d="M187.301 37.0531C185.981 38.5764 184.678 39.0332 183.513 38.1258C182.522 37.3503 182.411 36.0456 183.37 34.752C184.447 33.2776 185.805 32.9266 186.983 33.8127C188.015 34.5828 187.883 35.862 187.301 37.0531Z" fill="#C8D4FF"/>
<path d="M90.6496 32.8249C89.6442 34.0759 88.4461 34.6382 87.3062 33.9961C85.9896 33.2647 85.8416 31.865 86.9328 30.3696C87.8687 29.0923 89.1649 28.7206 90.2738 29.4476C91.3688 30.196 91.371 31.4213 90.6496 32.8249Z" fill="#C8D4FF"/>
<path d="M202.811 101.457C201.606 103.107 200.377 103.621 199.073 102.853C197.938 102.184 197.725 100.997 198.507 99.6143C199.383 98.0509 200.665 97.4352 202.047 98.0868C203.43 98.7543 203.442 100.059 202.811 101.457Z" fill="#C8D4FF"/>
<path d="M80.9994 48.9479C79.8437 50.5229 78.4818 51.0329 77.0942 50.1268C75.8603 49.3262 75.7291 47.9955 76.7099 46.4796C77.8231 44.7615 79.2355 44.3256 80.6302 45.221C81.8799 46.0163 81.9257 47.3261 80.9994 48.9479Z" fill="#C8D4FF"/>
<path d="M70.9353 64.8754C69.9011 66.0947 68.701 66.6412 67.58 65.9513C66.2983 65.1666 66.1731 63.7508 67.302 62.2924C68.2597 61.0574 69.5809 60.6855 70.655 61.4658C71.7112 62.2356 71.7154 63.4768 70.9353 64.8754Z" fill="#C8D4FF"/>
<path d="M183.004 133.629C181.941 135.082 180.706 135.607 179.401 134.839C178.266 134.17 178.053 132.983 178.835 131.601C179.711 130.037 181 129.411 182.375 130.073C183.724 130.735 183.856 132.008 183.004 133.629Z" fill="#C8D4FF"/>
</svg>
