<svg width="37" height="37" viewBox="0 0 37 37" fill="none" xmlns="http://www.w3.org/2000/svg">
<path d="M9.1042 15.4564L7.43853 17.1734C7.11648 17.5055 7.12449 18.0357 7.45653 18.3578C7.61925 18.5157 7.82952 18.5942 8.03965 18.5942C8.25827 18.5942 8.47672 18.5091 8.64091 18.3399L10.3066 16.6228C10.6286 16.2908 10.6206 15.7605 10.2886 15.4385C9.95654 15.1163 9.42629 15.1244 9.1042 15.4564Z" fill="#FFC322" stroke="#FFC322" stroke-width="0.3"/>
<path d="M14.9347 15.9976C14.4722 15.9976 14.0972 16.3726 14.0972 16.8351V24.2059C14.0972 24.6684 14.4722 25.0434 14.9347 25.0434H14.9348C15.3973 25.0434 15.7724 24.6684 15.7724 24.2059L15.7723 16.8351C15.7723 16.3726 15.3973 15.9976 14.9347 15.9976Z" fill="#1E1F24" stroke="#1E1F24" stroke-width="0.3"/>
<path d="M26.1729 3.60156H23.6601C23.1976 3.60156 22.8226 3.97657 22.8226 4.43914C22.8226 4.90171 23.1976 5.27672 23.6601 5.27672H25.8677L19.7175 11.4256C19.5525 11.5906 19.3366 11.6845 19.123 11.6845C19.1186 11.6845 19.114 11.6844 19.1095 11.6844C18.9038 11.6805 18.6937 11.5862 18.533 11.4256L17.5483 10.4408C17.0662 9.95873 16.4262 9.67927 15.7923 9.67407C15.7862 9.67403 15.78 9.67403 15.7739 9.67403C15.1178 9.67403 14.4626 9.96083 13.973 10.4628L12.1781 12.2659C11.8517 12.5937 11.8529 13.124 12.1807 13.4504C12.3441 13.613 12.5579 13.6944 12.7716 13.6944C12.9866 13.6944 13.2016 13.6121 13.3652 13.4477L15.1634 11.6414C15.1659 11.639 15.1683 11.6365 15.1707 11.6341C15.3456 11.4539 15.5735 11.3471 15.7786 11.3491C15.9738 11.3507 16.1926 11.454 16.3639 11.6253L17.3486 12.61C17.8197 13.0811 18.434 13.3472 19.0784 13.3592C19.7484 13.3718 20.4136 13.0987 20.9021 12.6101L27.0104 6.50298V8.58515C27.0104 9.04772 27.3854 9.42273 27.848 9.42273C28.3106 9.42273 28.6856 9.04772 28.6856 8.58515V6.11429C28.6856 4.72879 27.5584 3.60156 26.1729 3.60156Z" fill="#00C5B3" stroke="#00C5B3" stroke-width="0.3"/>
<path d="M9.6749 19.7669C9.21124 19.7653 8.83447 20.1407 8.83447 20.6044V24.206C8.83447 24.6685 9.20948 25.0436 9.67205 25.0436H9.67209C10.1347 25.0436 10.5097 24.6686 10.5097 24.206V20.6044C10.5096 20.1429 10.1364 19.7684 9.6749 19.7669Z" fill="#1E1F24" stroke="#1E1F24" stroke-width="0.3"/>
<path d="M26.1305 10.7628C25.668 10.7628 25.293 11.1378 25.293 11.6004V24.206C25.293 24.6685 25.668 25.0435 26.1305 25.0435H26.1306C26.5931 25.0435 26.9682 24.6685 26.9682 24.206V11.6004C26.9681 11.1378 26.5932 10.7628 26.1305 10.7628Z" fill="#1E1F24" stroke="#1E1F24" stroke-width="0.3"/>
<path d="M20.4909 15.202C20.0283 15.202 19.6533 15.577 19.6533 16.0396V24.206C19.6533 24.6685 20.0283 25.0436 20.4909 25.0436H20.4909C20.9535 25.0436 21.3285 24.6686 21.3285 24.206V16.0396C21.3285 15.577 20.9535 15.202 20.4909 15.202Z" fill="#1E1F24" stroke="#1E1F24" stroke-width="0.3"/>
<path d="M28.6845 30.2823H28.0279L28.6845 31.0323C27.9411 30.9331 27.9411 30.9331 27.9411 30.933L27.9411 30.9331L27.9411 30.9335L27.9407 30.9359L27.9392 30.9471L27.9327 30.9937C27.9268 31.0351 27.9178 31.0967 27.9058 31.1757C27.8817 31.3337 27.8454 31.5607 27.7969 31.8334C27.6996 32.3808 27.5547 33.1044 27.3631 33.8229C27.1689 34.5509 26.9378 35.2313 26.68 35.7146C26.5506 35.9572 26.4346 36.1114 26.3439 36.1964C26.3153 36.2233 26.2947 36.2383 26.2819 36.2463C26.2455 36.2373 26.1459 36.206 25.97 36.1005C25.7524 35.9699 25.4892 35.7693 25.1898 35.5052C24.5927 34.9783 23.9218 34.2614 23.2835 33.5249C22.6486 32.7923 22.0606 32.0574 21.6304 31.5043C21.4156 31.2281 21.2409 30.9982 21.1202 30.8378C21.0598 30.7576 21.013 30.6948 20.9815 30.6523L20.9459 30.6042L20.9371 30.5922L20.935 30.5894L20.9345 30.5888L20.9345 30.5887L20.9345 30.5887L20.7097 30.2823H20.3297H5.23291C3.43798 30.2823 1.98291 28.8272 1.98291 27.0323V4C1.98291 2.20508 3.43799 0.75 5.23291 0.75H31.8458C33.6407 0.75 35.0958 2.20507 35.0958 4V27.0323C35.0958 28.8272 33.6407 30.2823 31.8458 30.2823H28.6845ZM26.2659 36.2547C26.2659 36.2546 26.2671 36.254 26.2693 36.2534C26.2669 36.2545 26.2658 36.2548 26.2659 36.2547Z" stroke="#1E1F24" stroke-width="1.5"/>
</svg>
