<svg width="37" height="38" viewBox="0 0 37 38" fill="none" xmlns="http://www.w3.org/2000/svg">
<ellipse cx="19.0913" cy="34.6853" rx="17.1382" ry="2.95486" fill="#1D1939"/>
<path fill-rule="evenodd" clip-rule="evenodd" d="M6.06836 24.6389C6.06836 24.6389 9.30827 14.6484 16.3999 20.5021C23.4916 26.3557 26.2182 13.864 26.2182 13.864V32.9913C26.2182 32.9913 26.0439 33.8071 25.7344 34.0944C25.4249 34.3818 24.41 34.6697 24.41 34.6697C24.41 34.6697 23.1874 34.5926 22.637 34.0944C22.0867 33.5963 21.8286 32.333 21.8286 32.333V31.0448H6.06836V24.6389Z" fill="#00C5B3"/>
<path d="M24.4099 34.0944H3.13488C1.82934 34.0944 0.770996 33.0361 0.770996 31.7305V30.5486H22.046V31.7305C22.046 33.0361 23.1043 34.0944 24.4099 34.0944Z" fill="#BFF5FF"/>
<path d="M31.5017 5.72772H26.7739V4.54577C26.7739 3.24023 27.8323 2.18188 29.1378 2.18188C30.4434 2.18188 31.5017 3.24023 31.5017 4.54577V5.72772Z" fill="#8BE6E0"/>
<path d="M17.765 6.58118C18.3015 5.73157 17.3144 4.74417 16.4648 5.28091C16.2431 4.3009 14.8468 4.3009 14.6256 5.28091C13.776 4.74447 12.7886 5.73194 13.3253 6.58118C12.3453 6.80282 12.3453 8.19914 13.3253 8.42034C12.7889 9.26995 13.776 10.2573 14.6256 9.72061C14.8473 10.7006 16.2436 10.7006 16.4648 9.72061C17.3144 10.2571 18.3018 9.26995 17.765 8.42034C18.7451 8.19899 18.7451 6.80253 17.765 6.58118Z" fill="#287CF1"/>
<path d="M30.9106 9.27368C29.9315 9.27368 29.1377 9.99941 29.1377 10.8946V28.1848H32.6835V10.8946C32.6835 9.99941 31.8898 9.27368 30.9106 9.27368Z" fill="#25CDEB"/>
<path d="M29.1377 28.1848L30.9106 31.7306L32.6835 28.1848H29.1377Z" fill="#44F4C7"/>
<path fill-rule="evenodd" clip-rule="evenodd" d="M30.9325 5.57018C31.2468 5.57018 31.5015 5.31442 31.5015 4.99891V3.85637C31.4998 2.27957 30.2269 1.00177 28.6561 1H8.16909C6.59834 1.00177 5.32544 2.27957 5.32367 3.85637V30.7062H1.34008C1.02578 30.7062 0.770996 30.962 0.770996 31.2775V32.42C0.77276 33.9968 2.04567 35.2746 3.61642 35.2764H24.1035C25.6742 35.2746 26.9471 33.9968 26.9489 32.42V5.57018H30.9325ZM6.46184 3.85637V30.7062H21.8271C22.1414 30.7062 22.3962 30.962 22.3962 31.2775V32.42C22.3962 33.3665 23.1606 34.1338 24.1035 34.1338C25.0463 34.1338 25.8107 33.3665 25.8107 32.42V3.85637C25.81 3.238 26.0103 2.63629 26.3811 2.14255H8.16909C7.22666 2.14365 6.46294 2.91031 6.46184 3.85637ZM3.61618 34.1338C2.67372 34.1328 1.90998 33.3661 1.90892 32.42V31.8487H21.2578V32.42C21.2571 33.0384 21.4574 33.6401 21.8282 34.1338H3.61618ZM30.3634 3.85636C30.3623 2.9103 29.5986 2.14364 28.6562 2.14254C27.7137 2.14364 26.95 2.9103 26.9489 3.85636V4.42763H30.3634V3.85636Z" fill="black"/>
<path d="M31.5015 3.85637H31.7015V3.85614L31.5015 3.85637ZM28.6561 1L28.6564 0.8H28.6561V1ZM8.16909 1V0.8L8.16887 0.8L8.16909 1ZM5.32367 3.85637L5.12367 3.85614V3.85637H5.32367ZM5.32367 30.7062V30.9062H5.52367V30.7062H5.32367ZM0.770996 32.42H0.570996L0.570996 32.4202L0.770996 32.42ZM3.61642 35.2764L3.61619 35.4764H3.61642V35.2764ZM24.1035 35.2764V35.4764H24.1037L24.1035 35.2764ZM26.9489 32.42L27.1489 32.4202V32.42H26.9489ZM26.9489 5.57018V5.37018H26.7489V5.57018H26.9489ZM6.46184 30.7062H6.26184V30.9062H6.46184V30.7062ZM6.46184 3.85637L6.26184 3.85613V3.85637H6.46184ZM25.8107 3.85637H26.0107V3.85614L25.8107 3.85637ZM26.3811 2.14255L26.5411 2.26266L26.7815 1.94255H26.3811V2.14255ZM8.16909 2.14255V1.94255L8.16886 1.94255L8.16909 2.14255ZM1.90892 32.42H1.70892L1.70892 32.4202L1.90892 32.42ZM3.61618 34.1338L3.61595 34.3338H3.61618V34.1338ZM1.90892 31.8487V31.6487H1.70892V31.8487H1.90892ZM21.2578 31.8487H21.4578V31.6487H21.2578V31.8487ZM21.2578 32.42L21.4578 32.4202V32.42H21.2578ZM21.8282 34.1338V34.3338H22.2286L21.9881 34.0137L21.8282 34.1338ZM28.6562 2.14254L28.6564 1.94254L28.6559 1.94254L28.6562 2.14254ZM30.3634 3.85636H30.5634V3.85613L30.3634 3.85636ZM26.9489 3.85636L26.7489 3.85613V3.85636H26.9489ZM26.9489 4.42763H26.7489V4.62763H26.9489V4.42763ZM30.3634 4.42763V4.62763H30.5634V4.42763H30.3634ZM31.3015 4.99891C31.3015 5.20468 31.1356 5.37018 30.9325 5.37018V5.77018C31.3579 5.77018 31.7015 5.42415 31.7015 4.99891H31.3015ZM31.3015 3.85637V4.99891H31.7015V3.85637H31.3015ZM28.6559 1.2C30.1157 1.20165 31.2999 2.38936 31.3015 3.85659L31.7015 3.85614C31.6997 2.16979 30.3381 0.801896 28.6564 0.8L28.6559 1.2ZM8.16909 1.2H28.6561V0.8H8.16909V1.2ZM5.52367 3.85659C5.52531 2.38936 6.70957 1.20165 8.16932 1.2L8.16887 0.8C6.48711 0.801896 5.12556 2.16979 5.12367 3.85614L5.52367 3.85659ZM5.52367 30.7062V3.85637H5.12367V30.7062H5.52367ZM1.34008 30.9062H5.32367V30.5062H1.34008V30.9062ZM0.970996 31.2775C0.970996 31.0717 1.13696 30.9062 1.34008 30.9062V30.5062C0.914604 30.5062 0.570996 30.8522 0.570996 31.2775H0.970996ZM0.970996 32.42V31.2775H0.570996V32.42H0.970996ZM3.61664 35.0764C2.15689 35.0747 0.972638 33.887 0.970996 32.4198L0.570996 32.4202C0.572883 34.1066 1.93444 35.4745 3.61619 35.4764L3.61664 35.0764ZM24.1035 35.0764H3.61642V35.4764H24.1035V35.0764ZM26.7489 32.4198C26.7472 33.887 25.563 35.0747 24.1032 35.0764L24.1037 35.4764C25.7854 35.4745 27.147 34.1066 27.1489 32.4202L26.7489 32.4198ZM26.7489 5.57018V32.42H27.1489V5.57018H26.7489ZM30.9325 5.37018H26.9489V5.77018H30.9325V5.37018ZM6.66184 30.7062V3.85637H6.26184V30.7062H6.66184ZM21.8271 30.5062H6.46184V30.9062H21.8271V30.5062ZM22.5962 31.2775C22.5962 30.8522 22.2526 30.5062 21.8271 30.5062V30.9062C22.0302 30.9062 22.1962 31.0717 22.1962 31.2775H22.5962ZM22.5962 32.42V31.2775H22.1962V32.42H22.5962ZM24.1035 33.9338C23.2717 33.9338 22.5962 33.2568 22.5962 32.42H22.1962C22.1962 33.4763 23.0494 34.3338 24.1035 34.3338V33.9338ZM25.6107 32.42C25.6107 33.2568 24.9352 33.9338 24.1035 33.9338V34.3338C25.1575 34.3338 26.0107 33.4763 26.0107 32.42H25.6107ZM25.6107 3.85637V32.42H26.0107V3.85637H25.6107ZM26.2212 2.02244C25.8243 2.55094 25.61 3.19489 25.6107 3.85659L26.0107 3.85614C26.0101 3.28111 26.1963 2.72165 26.5411 2.26266L26.2212 2.02244ZM8.16909 2.34255H26.3811V1.94255H8.16909V2.34255ZM6.66184 3.8566C6.66281 3.02009 7.33789 2.34352 8.16933 2.34255L8.16886 1.94255C7.11543 1.94378 6.26306 2.80052 6.26184 3.85613L6.66184 3.8566ZM1.70892 32.4202C1.7101 33.4759 2.5625 34.3326 3.61595 34.3338L3.6164 33.9338C2.78495 33.9329 2.10986 33.2563 2.10892 32.4198L1.70892 32.4202ZM1.70892 31.8487V32.42H2.10892V31.8487H1.70892ZM21.2578 31.6487H1.90892V32.0487H21.2578V31.6487ZM21.4578 32.42V31.8487H21.0578V32.42H21.4578ZM21.9881 34.0137C21.6434 33.5547 21.4572 32.9953 21.4578 32.4202L21.0578 32.4198C21.0571 33.0815 21.2714 33.7254 21.6683 34.2539L21.9881 34.0137ZM3.61618 34.3338H21.8282V33.9338H3.61618V34.3338ZM28.6559 2.34254C29.4874 2.34351 30.1624 3.02008 30.1634 3.85659L30.5634 3.85613C30.5622 2.80051 29.7098 1.94377 28.6564 1.94254L28.6559 2.34254ZM27.1489 3.85659C27.1499 3.02008 27.825 2.34351 28.6564 2.34254L28.6559 1.94254C27.6025 1.94377 26.7501 2.80051 26.7489 3.85613L27.1489 3.85659ZM27.1489 4.42763V3.85636H26.7489V4.42763H27.1489ZM30.3634 4.22763H26.9489V4.62763H30.3634V4.22763ZM30.1634 3.85636V4.42763H30.5634V3.85636H30.1634Z" fill="black"/>
<path fill-rule="evenodd" clip-rule="evenodd" d="M13.0877 8.51871C12.7698 8.27758 12.5852 7.89978 12.5904 7.50076C12.5852 7.10174 12.7698 6.72394 13.0877 6.48281C13.0387 6.088 13.1746 5.69268 13.4559 5.41137C13.7372 5.13006 14.1325 4.99421 14.5273 5.04317C14.7718 4.72938 15.1474 4.5459 15.5452 4.5459C15.9431 4.5459 16.3187 4.72938 16.5632 5.04317C16.958 4.99421 17.3533 5.13006 17.6346 5.41137C17.9159 5.69268 18.0518 6.088 18.0028 6.48281C18.3166 6.72734 18.5001 7.10293 18.5001 7.50076C18.5001 7.89858 18.3166 8.27418 18.0028 8.51871C18.0518 8.91352 17.9159 9.30884 17.6346 9.59015C17.3533 9.87146 16.958 10.0073 16.5632 9.95834C16.3187 10.2721 15.9431 10.4556 15.5452 10.4556C15.1474 10.4556 14.7718 10.2721 14.5273 9.95834C14.1325 10.0073 13.7372 9.87142 13.4559 9.59012C13.1746 9.30882 13.0388 8.91351 13.0877 8.51871ZM14.1499 6.92295C14.0887 7.07075 13.9595 7.17962 13.8035 7.21489C13.6698 7.24507 13.575 7.36379 13.575 7.50077C13.575 7.63776 13.6698 7.75648 13.8035 7.78666C13.9595 7.82193 14.0887 7.9308 14.1499 8.0786C14.2111 8.22641 14.1967 8.39473 14.1113 8.52999C14.0381 8.64583 14.0549 8.79691 14.1518 8.89378C14.2487 8.99065 14.3998 9.00746 14.5156 8.93425C14.6509 8.84886 14.8192 8.83447 14.967 8.89567C15.1148 8.95687 15.2236 9.08603 15.2589 9.24205C15.2891 9.37567 15.4078 9.47056 15.5448 9.47056C15.6817 9.47056 15.8005 9.37567 15.8306 9.24205C15.8659 9.08603 15.9748 8.95687 16.1226 8.89567C16.2703 8.83447 16.4386 8.84886 16.5739 8.93425C16.6897 9.00746 16.8408 8.99065 16.9377 8.89378C17.0346 8.79691 17.0514 8.64583 16.9783 8.52999C16.8929 8.39473 16.8785 8.22641 16.9397 8.0786C17.0009 7.9308 17.13 7.82193 17.2861 7.78666C17.4197 7.75648 17.5146 7.63776 17.5146 7.50077C17.5146 7.36379 17.4197 7.24507 17.2861 7.21489C17.13 7.17962 17.0009 7.07075 16.9397 6.92295C16.8785 6.77514 16.8929 6.60682 16.9783 6.47156C17.0514 6.35573 17.0345 6.2047 16.9377 6.10785C16.8408 6.011 16.6898 5.99416 16.574 6.0673C16.4387 6.15272 16.2704 6.16712 16.1226 6.10592C15.9748 6.04472 15.8659 5.91554 15.8306 5.7595C15.8005 5.62588 15.6817 5.53099 15.5448 5.53099C15.4078 5.53099 15.2891 5.62588 15.2589 5.7595C15.2236 5.91554 15.1147 6.04472 14.9669 6.10592C14.8191 6.16712 14.6508 6.15272 14.5156 6.0673C14.3998 5.99416 14.2487 6.011 14.1519 6.10785C14.055 6.2047 14.0381 6.35573 14.1113 6.47156C14.1967 6.60682 14.2111 6.77514 14.1499 6.92295Z" fill="black"/>
<path d="M12.5903 14.0015H18.5001V15.1834H12.5903V14.0015Z" fill="black"/>
<path d="M14.9541 11.6375H20.8638V12.8194H14.9541V11.6375Z" fill="black"/>
<path d="M11.4087 11.6375H13.7726V12.8194H11.4087V11.6375Z" fill="black"/>
<path d="M10.2266 17.5471H24.4099V18.7291H10.2266V17.5471Z" fill="black"/>
<path d="M7.86279 17.5471H9.04474V18.7291H7.86279V17.5471Z" fill="black"/>
<path d="M10.2266 21.093H24.4099V22.275H10.2266V21.093Z" fill="black"/>
<path d="M7.86279 21.093H9.04474V22.275H7.86279V21.093Z" fill="black"/>
<path d="M10.2266 24.6389H13.7724V25.8209H10.2266V24.6389Z" fill="black"/>
<path d="M14.9541 24.6389H24.4097V25.8209H14.9541V24.6389Z" fill="black"/>
<path d="M10.2266 27.0027H19.6821V28.1846H10.2266V27.0027Z" fill="black"/>
<path d="M7.86279 27.0027H9.04474V28.1846H7.86279V27.0027Z" fill="black"/>
<path d="M20.8643 27.0027H24.4101V28.1846H20.8643V27.0027Z" fill="black"/>
<path fill-rule="evenodd" clip-rule="evenodd" d="M33.0775 10.4005H33.57C34.3856 10.4016 35.0465 11.1763 35.0474 12.1322V18.4818H34.0625V12.1322C34.0622 11.8135 33.8418 11.5553 33.57 11.555H33.0775V28.872C33.0775 28.9616 33.0595 29.0499 33.0251 29.1299H33.0255L31.5481 32.5934C31.4646 32.7889 31.2941 32.9124 31.1076 32.9124C30.9211 32.9124 30.7506 32.7889 30.6671 32.5934L29.1897 29.1299H29.1901C29.1557 29.0499 29.1377 28.9616 29.1377 28.872V10.4005C29.1377 9.1253 30.0197 8.09155 31.1076 8.09155C32.1956 8.09155 33.0775 9.1253 33.0775 10.4005ZM32.0927 10.4005C32.0921 9.76321 31.6515 9.24678 31.1078 9.24603C30.5641 9.24678 30.1235 9.76321 30.1228 10.4005H32.0927ZM32.0927 28.2948H30.1228V19.6362H32.0927V28.2948ZM30.1228 18.4818H32.0927V17.3273H30.1228V18.4818ZM31.1076 31.0446L30.427 29.4492H31.7882L31.1076 31.0446ZM30.1228 16.1728H32.0927V11.555H30.1228V16.1728Z" fill="black"/>
<path d="M33.57 10.4005L33.5701 10.3505H33.57V10.4005ZM33.0775 10.4005H33.0275V10.4505H33.0775V10.4005ZM35.0474 12.1322H35.0974V12.1321L35.0474 12.1322ZM35.0474 18.4818V18.5318H35.0974V18.4818H35.0474ZM34.0625 18.4818H34.0125V18.5318H34.0625V18.4818ZM34.0625 12.1322H34.1125V12.1321L34.0625 12.1322ZM33.57 11.555L33.5701 11.505H33.57V11.555ZM33.0775 11.555V11.505H33.0275V11.555H33.0775ZM33.0775 28.872L33.1275 28.872V28.872H33.0775ZM33.0251 29.1299L32.9792 29.1102L32.9492 29.1799H33.0251V29.1299ZM33.0255 29.1299L33.0715 29.1496L33.1012 29.08H33.0255V29.1299ZM31.5481 32.5934L31.594 32.613L31.5941 32.613L31.5481 32.5934ZM30.6671 32.5934L30.6212 32.613L30.6212 32.613L30.6671 32.5934ZM29.1897 29.1299V29.08H29.114L29.1437 29.1496L29.1897 29.1299ZM29.1901 29.1299V29.1799H29.266L29.236 29.1102L29.1901 29.1299ZM29.1377 28.872H29.0877L29.0877 28.872L29.1377 28.872ZM31.1078 9.24603L31.1079 9.19603L31.1077 9.19603L31.1078 9.24603ZM32.0927 10.4005V10.4505H32.1428L32.1427 10.4004L32.0927 10.4005ZM30.1228 10.4005L30.0728 10.4004L30.0728 10.4505H30.1228V10.4005ZM30.1228 28.2948H30.0728V28.3448H30.1228V28.2948ZM32.0927 28.2948V28.3448H32.1427V28.2948H32.0927ZM30.1228 19.6362V19.5862H30.0728V19.6362H30.1228ZM32.0927 19.6362H32.1427V19.5862H32.0927V19.6362ZM32.0927 18.4818V18.5318H32.1427V18.4818H32.0927ZM30.1228 18.4818H30.0728V18.5318H30.1228V18.4818ZM32.0927 17.3273H32.1427V17.2773H32.0927V17.3273ZM30.1228 17.3273V17.2773H30.0728V17.3273H30.1228ZM30.427 29.4492V29.3992H30.3513L30.381 29.4689L30.427 29.4492ZM31.1076 31.0446L31.0616 31.0643L31.1076 31.1721L31.1536 31.0643L31.1076 31.0446ZM31.7882 29.4492L31.8342 29.4689L31.8639 29.3992H31.7882V29.4492ZM32.0927 16.1728V16.2228H32.1427V16.1728H32.0927ZM30.1228 16.1728H30.0728V16.2228H30.1228V16.1728ZM32.0927 11.555H32.1427V11.505H32.0927V11.555ZM30.1228 11.555V11.505H30.0728V11.555H30.1228ZM33.57 10.3505H33.0775V10.4505H33.57V10.3505ZM35.0974 12.1321C35.0964 11.1564 34.4203 10.3517 33.5701 10.3505L33.5699 10.4505C34.3508 10.4516 34.9965 11.1962 34.9974 12.1322L35.0974 12.1321ZM35.0974 18.4818V12.1322H34.9974V18.4818H35.0974ZM34.0625 18.5318H35.0474V18.4318H34.0625V18.5318ZM34.0125 12.1322V18.4818H34.1125V12.1322H34.0125ZM33.5699 11.605C33.8071 11.6053 34.0122 11.8334 34.0125 12.1322L34.1125 12.1321C34.1121 11.7936 33.8766 11.5054 33.5701 11.505L33.5699 11.605ZM33.0775 11.605H33.57V11.505H33.0775V11.605ZM33.1275 28.872V11.555H33.0275V28.872H33.1275ZM33.0711 29.1497C33.1082 29.0633 33.1275 28.9682 33.1275 28.872L33.0275 28.872C33.0275 28.955 33.0108 29.0366 32.9792 29.1102L33.0711 29.1497ZM33.0255 29.08H33.0251V29.1799H33.0255V29.08ZM31.5941 32.613L33.0715 29.1496L32.9795 29.1103L31.5021 32.5737L31.5941 32.613ZM31.1076 32.9624C31.3175 32.9624 31.5042 32.8237 31.594 32.613L31.5021 32.5737C31.4251 32.7541 31.2708 32.8624 31.1076 32.8624V32.9624ZM30.6212 32.613C30.7111 32.8237 30.8977 32.9624 31.1076 32.9624V32.8624C30.9444 32.8624 30.7901 32.7541 30.7131 32.5737L30.6212 32.613ZM29.1437 29.1496L30.6212 32.613L30.7131 32.5737L29.2357 29.1103L29.1437 29.1496ZM29.1901 29.08H29.1897V29.1799H29.1901V29.08ZM29.0877 28.872C29.0877 28.9682 29.107 29.0633 29.1442 29.1497L29.236 29.1102C29.2044 29.0366 29.1877 28.955 29.1877 28.872L29.0877 28.872ZM29.0877 10.4005V28.872H29.1877V10.4005H29.0877ZM31.1076 8.04155C29.9849 8.04155 29.0877 9.10543 29.0877 10.4005H29.1877C29.1877 9.14517 30.0544 8.14155 31.1076 8.14155V8.04155ZM33.1275 10.4005C33.1275 9.10543 32.2303 8.04155 31.1076 8.04155V8.14155C32.1608 8.14155 33.0275 9.14517 33.0275 10.4005H33.1275ZM31.1077 9.29603C31.6167 9.29673 32.0421 9.78312 32.0427 10.4005L32.1427 10.4004C32.1421 9.74331 31.6863 9.19683 31.1079 9.19603L31.1077 9.29603ZM30.1728 10.4005C30.1735 9.78312 30.5988 9.29673 31.1079 9.29603L31.1077 9.19603C30.5293 9.19683 30.0735 9.74331 30.0728 10.4004L30.1728 10.4005ZM32.0927 10.3505H30.1228V10.4505H32.0927V10.3505ZM30.1228 28.3448H32.0927V28.2448H30.1228V28.3448ZM30.0728 19.6362V28.2948H30.1728V19.6362H30.0728ZM32.0927 19.5862H30.1228V19.6862H32.0927V19.5862ZM32.1427 28.2948V19.6362H32.0427V28.2948H32.1427ZM32.0927 18.4318H30.1228V18.5318H32.0927V18.4318ZM32.0427 17.3273V18.4818H32.1427V17.3273H32.0427ZM30.1228 17.3773H32.0927V17.2773H30.1228V17.3773ZM30.1728 18.4818V17.3273H30.0728V18.4818H30.1728ZM30.381 29.4689L31.0616 31.0643L31.1536 31.025L30.473 29.4296L30.381 29.4689ZM31.7882 29.3992H30.427V29.4992H31.7882V29.3992ZM31.1536 31.0643L31.8342 29.4689L31.7422 29.4296L31.0616 31.025L31.1536 31.0643ZM32.0927 16.1228H30.1228V16.2228H32.0927V16.1228ZM32.0427 11.555V16.1728H32.1427V11.555H32.0427ZM30.1228 11.605H32.0927V11.505H30.1228V11.605ZM30.1728 16.1728V11.555H30.0728V16.1728H30.1728Z" fill="black"/>
</svg>
