<svg width="37" height="37" viewBox="0 0 37 37" fill="none" xmlns="http://www.w3.org/2000/svg">
<path fill-rule="evenodd" clip-rule="evenodd" d="M37 10.5656V13.737C36.9979 15.4877 35.5792 16.9064 33.8285 16.9084H18.5V32.7656H20.6143V22.1941C20.6143 21.6103 21.0876 21.137 21.6714 21.137C22.2552 21.137 22.7285 21.6103 22.7285 22.1941V32.7656H29.6C31.3507 32.7635 32.7694 31.3448 32.7714 29.5941V19.0227C32.7714 18.4389 33.2447 17.9656 33.8285 17.9656C34.4124 17.9656 34.8857 18.4389 34.8857 19.0227V29.5941C34.8825 32.512 32.5179 34.8766 29.6 34.8798H11.6285C11.0447 34.8798 12.4583 32.7656 13.0421 32.7656H16.3857V16.9084H6.34283V21.137C6.34283 21.7208 5.86953 22.1941 5.28569 22.1941C4.70184 22.1941 4.22854 21.7208 4.22854 21.137V16.7234C2.96266 16.2759 2.11579 15.0796 2.11426 13.737V10.5656C2.1163 8.81487 3.535 7.39616 5.28569 7.39413H11.9045C10.4928 5.2801 10.994 2.42964 13.0421 0.923935C15.0902 -0.581774 17.9604 -0.209915 19.5571 1.76801C21.1538 -0.209915 24.024 -0.581774 26.0721 0.923935C28.1202 2.42964 28.6214 5.2801 27.2098 7.39413H33.8285C35.5792 7.39616 36.9979 8.81487 37 10.5656ZM34.8856 13.737V10.5656C34.8856 9.98171 34.4123 9.50841 33.8284 9.50841H22.7284V14.7941H33.8284C34.4123 14.7941 34.8856 14.3208 34.8856 13.737ZM23.2571 2.10841C24.7167 2.10841 25.9 3.29165 25.9 4.75126C25.9 6.21087 24.7167 7.39412 23.2571 7.39412C21.7975 7.39412 20.6143 6.21087 20.6143 4.75126C20.616 3.29238 21.7982 2.11015 23.2571 2.10841ZM15.8573 2.10841C14.3977 2.10841 13.2144 3.29165 13.2144 4.75126C13.2162 6.21015 14.3984 7.39237 15.8573 7.39412C17.3169 7.39412 18.5001 6.21087 18.5001 4.75126C18.5001 3.29165 17.3169 2.10841 15.8573 2.10841ZM5.28557 14.7941C4.70173 14.7941 4.22843 14.3208 4.22843 13.737V10.5656C4.22843 9.98171 4.70173 9.50841 5.28557 9.50841H16.3856V14.7941H5.28557ZM20.6144 9.50841H18.5001V14.7941H20.6144V9.50841Z" fill="#1D1939"/>
<circle cx="21.6714" cy="19.0227" r="1.05714" fill="#1E1F24"/>
<path fill-rule="evenodd" clip-rule="evenodd" d="M23.2571 2.1084C24.7167 2.1084 25.9 3.29165 25.9 4.75126C25.9 6.21087 24.7167 7.39411 23.2571 7.39411C21.7975 7.39411 20.6143 6.21087 20.6143 4.75126C20.616 3.29237 21.7982 2.11015 23.2571 2.1084Z" fill="#00C5B3"/>
<path fill-rule="evenodd" clip-rule="evenodd" d="M13.2144 4.75126C13.2144 3.29165 14.3976 2.1084 15.8572 2.1084C17.3168 2.1084 18.5001 3.29165 18.5001 4.75126C18.5001 6.21087 17.3168 7.39411 15.8572 7.39411C14.3983 7.39236 13.2161 6.21014 13.2144 4.75126Z" fill="#00C5B3"/>
<path fill-rule="evenodd" clip-rule="evenodd" d="M13.7429 30.1226C13.7429 33.9176 10.6664 36.9941 6.87143 36.9941C3.07825 36.9897 0.00436918 33.9158 0 30.1226C0 26.3277 3.07644 23.2512 6.87143 23.2512C10.6664 23.2512 13.7429 26.3277 13.7429 30.1226ZM11.6285 30.1226C11.6285 27.4953 9.49862 25.3655 6.87132 25.3655C4.24523 25.3684 2.11709 27.4966 2.11418 30.1226C2.11418 32.7499 4.24403 34.8798 6.87132 34.8798C9.49862 34.8798 11.6285 32.7499 11.6285 30.1226Z" fill="#1D1939"/>
<path fill-rule="evenodd" clip-rule="evenodd" d="M6.8714 25.3655C9.4987 25.3655 11.6285 27.4953 11.6285 30.1226C11.6285 32.7499 9.4987 34.8798 6.8714 34.8798C4.2441 34.8798 2.11426 32.7499 2.11426 30.1226C2.11717 27.4965 4.24531 25.3684 6.8714 25.3655Z" fill="#FFC322"/>
<path d="M6.34301 32.7656C6.62344 32.766 6.89243 32.6545 7.09041 32.4559L10.2618 29.2845C10.6625 28.8697 10.6567 28.2103 10.249 27.8026C9.84118 27.3948 9.18184 27.389 8.76704 27.7897L6.34301 30.2132L4.97612 28.8463C4.56132 28.4457 3.90198 28.4514 3.4942 28.8592C3.08642 29.2669 3.0807 29.9263 3.48132 30.3411L5.59561 32.4554C5.7935 32.6542 6.0625 32.7659 6.34301 32.7656Z" fill="#1D1939"/>
</svg>
