<svg width="38" height="38" viewBox="0 0 38 38" fill="none" xmlns="http://www.w3.org/2000/svg">
<path fill-rule="evenodd" clip-rule="evenodd" d="M24.5455 8.84851C24.5422 8.90199 24.5337 8.95502 24.5203 9.00688C25.8142 10.3938 26.5391 12.2166 26.5511 14.1133C26.5784 18.2555 23.2295 21.7425 19.0873 21.7425H19.0389C14.9185 21.7425 11.5541 18.3361 11.5275 14.2107C11.5135 11.8485 12.5944 9.61294 14.4546 8.15686V4.92426C14.4546 4.61464 14.7055 4.36365 15.0152 4.36365C15.3248 4.36365 15.5758 4.61464 15.5758 4.92426V7.43578C16.6302 6.88659 17.8024 6.60186 18.9913 6.60608H19.0403C20.613 6.59839 22.1477 7.08902 23.4243 8.0076V5.48486C23.4243 5.17525 23.6753 4.92426 23.9849 4.92426C24.2945 4.92426 24.5455 5.17525 24.5455 5.48486V8.84851ZM19.0381 20.6213H19.0795C22.6043 20.6213 25.4522 17.6571 25.4298 14.1336C25.4073 10.6235 22.5433 7.72729 19.0395 7.72729H18.9982C15.4748 7.72729 12.6255 10.6922 12.6479 14.2156C12.6703 17.7257 15.5343 20.6213 19.0381 20.6213Z" fill="black"/>
<path d="M24.5203 9.00688L24.3751 8.96927L24.3544 9.04899L24.4106 9.10921L24.5203 9.00688ZM24.5455 8.84851L24.6955 8.85789V8.84851H24.5455ZM26.5511 14.1133L26.4011 14.1143V14.1143L26.5511 14.1133ZM11.5275 14.2107L11.3775 14.2116L11.3775 14.2117L11.5275 14.2107ZM14.4546 8.15686L14.547 8.27498L14.6046 8.22994V8.15686H14.4546ZM15.5758 7.43578H15.4258V7.68303L15.6451 7.56882L15.5758 7.43578ZM18.9913 6.60608L18.9907 6.75608H18.9913V6.60608ZM19.0403 6.60608V6.75608L19.0411 6.75608L19.0403 6.60608ZM23.4243 8.0076L23.3367 8.12935L23.5743 8.30033V8.0076H23.4243ZM25.4298 14.1336L25.5798 14.1327V14.1327L25.4298 14.1336ZM12.6479 14.2156L12.4979 14.2166L12.4979 14.2166L12.6479 14.2156ZM24.6655 9.0445C24.6813 8.98338 24.6913 8.92089 24.6952 8.85788L24.3958 8.83915C24.393 8.88308 24.3861 8.92665 24.3751 8.96927L24.6655 9.0445ZM26.7011 14.1124C26.6888 12.178 25.9495 10.319 24.6299 8.90456L24.4106 9.10921C25.6788 10.4686 26.3893 12.2552 26.4011 14.1143L26.7011 14.1124ZM19.0873 21.8925C23.3157 21.8925 26.7289 18.3347 26.7011 14.1123L26.4011 14.1143C26.4279 18.1763 23.1433 21.5925 19.0873 21.5925V21.8925ZM19.0389 21.8925H19.0873V21.5925H19.0389V21.8925ZM11.3775 14.2117C11.4046 18.4178 14.8343 21.8925 19.0389 21.8925V21.5925C15.0026 21.5925 11.7036 18.2544 11.6775 14.2098L11.3775 14.2117ZM14.3621 8.03874C12.4654 9.52345 11.3632 11.8029 11.3775 14.2116L11.6775 14.2098C11.6638 11.894 12.7234 9.70244 14.547 8.27498L14.3621 8.03874ZM14.3046 4.92426V8.15686H14.6046V4.92426H14.3046ZM15.0152 4.21365C14.6227 4.21365 14.3046 4.5318 14.3046 4.92426H14.6046C14.6046 4.69748 14.7884 4.51365 15.0152 4.51365V4.21365ZM15.7258 4.92426C15.7258 4.5318 15.4076 4.21365 15.0152 4.21365V4.51365C15.2419 4.51365 15.4258 4.69748 15.4258 4.92426H15.7258ZM15.7258 7.43578V4.92426H15.4258V7.43578H15.7258ZM18.9918 6.45608C17.7786 6.45177 16.5825 6.74233 15.5065 7.30274L15.6451 7.56882C16.678 7.03086 17.8261 6.75194 18.9907 6.75608L18.9918 6.45608ZM19.0403 6.45608H18.9913V6.75608H19.0403V6.45608ZM23.5119 7.88584C22.2096 6.94876 20.644 6.44823 19.0396 6.45608L19.0411 6.75608C20.582 6.74854 22.0858 7.22929 23.3367 8.12935L23.5119 7.88584ZM23.2743 5.48486V8.0076H23.5743V5.48486H23.2743ZM23.9849 4.77426C23.5924 4.77426 23.2743 5.09241 23.2743 5.48486H23.5743C23.5743 5.25809 23.7581 5.07426 23.9849 5.07426V4.77426ZM24.6955 5.48486C24.6955 5.09241 24.3773 4.77426 23.9849 4.77426V5.07426C24.2117 5.07426 24.3955 5.25809 24.3955 5.48486H24.6955ZM24.6955 8.84851V5.48486H24.3955V8.84851H24.6955ZM19.0795 20.4713H19.0381V20.7713H19.0795V20.4713ZM25.2798 14.1346C25.3017 17.5778 22.5181 20.4713 19.0795 20.4713V20.7713C22.6905 20.7713 25.6027 17.7363 25.5798 14.1327L25.2798 14.1346ZM19.0395 7.87729C22.4592 7.87729 25.2579 10.7053 25.2798 14.1346L25.5798 14.1327C25.5568 10.5417 22.6274 7.57729 19.0395 7.57729V7.87729ZM18.9982 7.87729H19.0395V7.57729H18.9982V7.87729ZM12.7979 14.2147C12.776 10.7715 15.5609 7.87729 18.9982 7.87729V7.57729C15.3886 7.57729 12.475 10.6129 12.4979 14.2166L12.7979 14.2147ZM19.0381 20.4713C15.6184 20.4713 12.8198 17.6439 12.7979 14.2147L12.4979 14.2166C12.5208 17.8075 15.4502 20.7713 19.0381 20.7713V20.4713Z" fill="black"/>
<path fill-rule="evenodd" clip-rule="evenodd" d="M8.77217 14.8576C8.77017 14.8891 8.76513 14.9204 8.75711 14.951C9.5296 15.7691 9.9624 16.8443 9.96955 17.9631C9.98587 20.4064 7.98647 22.4633 5.51347 22.4633H5.48461C3.02458 22.4633 1.01598 20.454 1.00008 18.0206C0.991725 16.6272 1.63705 15.3085 2.74762 14.4496V12.5428C2.74762 12.3602 2.89747 12.2122 3.08232 12.2122C3.26716 12.2122 3.41701 12.3602 3.41701 12.5428V14.0243C4.04656 13.7003 4.74635 13.5324 5.45616 13.5349H5.48544C6.42438 13.5303 7.34064 13.8198 8.10278 14.3616V12.8735C8.10278 12.6909 8.25262 12.5428 8.43747 12.5428C8.62232 12.5428 8.77217 12.6909 8.77217 12.8735V14.8576ZM5.48426 21.8019H5.50895C7.61335 21.8019 9.31362 20.0534 9.30023 17.9751C9.28684 15.9046 7.57696 14.1962 5.4851 14.1962H5.46041C3.35684 14.1962 1.65574 15.9451 1.66913 18.0235C1.68252 20.0939 3.3924 21.8019 5.48426 21.8019Z" fill="black"/>
<path d="M8.75711 14.951L8.56365 14.9003L8.5355 15.0077L8.61169 15.0883L8.75711 14.951ZM8.77217 14.8576L8.97217 14.8703V14.8576H8.77217ZM9.96955 17.9631L9.76955 17.9644V17.9645L9.96955 17.9631ZM1.00008 18.0206L0.800084 18.0218L0.800084 18.0219L1.00008 18.0206ZM2.74762 14.4496L2.86997 14.6078L2.94762 14.5478V14.4496H2.74762ZM3.41701 14.0243H3.21701V14.3521L3.50852 14.2021L3.41701 14.0243ZM5.45616 13.5349L5.45546 13.7349H5.45616V13.5349ZM5.48544 13.5349V13.7349L5.48641 13.7349L5.48544 13.5349ZM8.10278 14.3616L7.98689 14.5246L8.30278 14.7492V14.3616H8.10278ZM9.30023 17.9751L9.50023 17.9738V17.9738L9.30023 17.9751ZM1.66913 18.0235L1.46913 18.0248L1.46913 18.0248L1.66913 18.0235ZM8.95057 15.0017C8.96186 14.9587 8.96896 14.9147 8.97177 14.8702L8.57257 14.845C8.57139 14.8636 8.5684 14.8822 8.56365 14.9003L8.95057 15.0017ZM10.1695 17.9618C10.1621 16.7921 9.70955 15.6684 8.90252 14.8137L8.61169 15.0883C9.34965 15.8698 9.76273 16.8965 9.76955 17.9644L10.1695 17.9618ZM5.51347 22.6633C8.09913 22.6633 10.1866 20.5144 10.1695 17.9618L9.76955 17.9645C9.78514 20.2985 7.87381 22.2633 5.51347 22.2633V22.6633ZM5.48461 22.6633H5.51347V22.2633H5.48461V22.6633ZM0.800084 18.0219C0.816701 20.5652 2.9146 22.6633 5.48461 22.6633V22.2633C3.13456 22.2633 1.21526 20.3428 1.20008 18.0193L0.800084 18.0219ZM2.62527 14.2914C1.46582 15.1881 0.791352 16.5655 0.800084 18.0218L1.20008 18.0194C1.1921 16.6889 1.80827 15.4289 2.86997 14.6078L2.62527 14.2914ZM2.54762 12.5428V14.4496H2.94762V12.5428H2.54762ZM3.08232 12.0122C2.78929 12.0122 2.54762 12.2475 2.54762 12.5428H2.94762C2.94762 12.4729 3.00564 12.4122 3.08232 12.4122V12.0122ZM3.61701 12.5428C3.61701 12.2475 3.37534 12.0122 3.08232 12.0122V12.4122C3.15899 12.4122 3.21701 12.4729 3.21701 12.5428H3.61701ZM3.61701 14.0243V12.5428H3.21701V14.0243H3.61701ZM5.45686 13.3349C4.71507 13.3323 3.98364 13.5078 3.3255 13.8465L3.50852 14.2021C4.10948 13.8929 4.77763 13.7325 5.45546 13.7349L5.45686 13.3349ZM5.48544 13.3349H5.45616V13.7349H5.48544V13.3349ZM8.21866 14.1986C7.42225 13.6324 6.46509 13.3301 5.48448 13.3349L5.48641 13.7349C6.38366 13.7305 7.25902 14.0071 7.98689 14.5246L8.21866 14.1986ZM7.90278 12.8735V14.3616H8.30278V12.8735H7.90278ZM8.43747 12.3428C8.14445 12.3428 7.90278 12.5782 7.90278 12.8735H8.30278C8.30278 12.8036 8.3608 12.7428 8.43747 12.7428V12.3428ZM8.97217 12.8735C8.97217 12.5782 8.7305 12.3428 8.43747 12.3428V12.7428C8.51415 12.7428 8.57217 12.8036 8.57217 12.8735H8.97217ZM8.97217 14.8576V12.8735H8.57217V14.8576H8.97217ZM5.50895 21.6019H5.48426V22.0019H5.50895V21.6019ZM9.10023 17.9764C9.11292 19.9454 7.50075 21.6019 5.50895 21.6019V22.0019C7.72596 22.0019 9.51432 20.1615 9.50023 17.9738L9.10023 17.9764ZM5.4851 14.3962C7.46708 14.3962 9.08756 16.0159 9.10023 17.9764L9.50023 17.9738C9.48613 15.7933 7.68683 13.9962 5.4851 13.9962V14.3962ZM5.46041 14.3962H5.4851V13.9962H5.46041V14.3962ZM1.86913 18.0222C1.85644 16.0532 3.46944 14.3962 5.46041 14.3962V13.9962C3.24424 13.9962 1.45504 15.8371 1.46913 18.0248L1.86913 18.0222ZM5.48426 21.6019C3.50225 21.6019 1.8818 19.9826 1.86913 18.0222L1.46913 18.0248C1.48323 20.2053 3.28255 22.0019 5.48426 22.0019V21.6019Z" fill="black"/>
<path d="M22.1023 12.0019C22.0659 11.9637 22.0192 11.9446 21.9625 11.9446H20.9229C20.854 11.5922 20.7242 11.2863 20.5338 11.0273H21.9503C22.0072 11.0273 22.0537 11.0082 22.0902 10.97C22.1265 10.9318 22.1448 10.883 22.1448 10.8235V10.1736C22.1448 10.1141 22.1265 10.0653 22.0902 10.027C22.0536 9.98889 22.0071 9.96973 21.9503 9.96973H16.8918C16.835 9.96973 16.7885 9.98889 16.752 10.027C16.7156 10.0653 16.6973 10.1141 16.6973 10.1736V11.0208C16.6973 11.076 16.7165 11.1238 16.755 11.1641C16.7935 11.2045 16.8391 11.2247 16.8918 11.2247H17.7734C18.6286 11.2247 19.1718 11.4645 19.4028 11.9445H16.8918C16.835 11.9445 16.7884 11.9636 16.752 12.0018C16.7156 12.0401 16.6973 12.0888 16.6973 12.1483V12.7982C16.6973 12.8576 16.7155 12.9065 16.752 12.9446C16.7885 12.9829 16.8351 13.0019 16.8918 13.0019H19.488C19.3988 13.3503 19.1911 13.6157 18.8647 13.7983C18.5384 13.981 18.1078 14.0723 17.5728 14.0723H16.8918C16.8391 14.0723 16.7935 14.0925 16.755 14.1328C16.7165 14.1732 16.6973 14.221 16.6973 14.2761V15.0852C16.6973 15.1405 16.7155 15.1872 16.752 15.2254C17.5301 16.0918 18.5395 17.3042 19.7798 18.863C19.8163 18.914 19.8669 18.9395 19.9318 18.9395H21.1173C21.2025 18.9395 21.2614 18.9013 21.2937 18.8247C21.3342 18.7483 21.3263 18.6761 21.2693 18.6081C20.0859 17.0876 19.1556 15.9495 18.4787 15.1935C19.1678 15.1086 19.7271 14.8749 20.1568 14.4928C20.5864 14.1106 20.8478 13.6136 20.9411 13.002H21.9625C22.0192 13.002 22.0659 12.983 22.1023 12.9447C22.1388 12.9066 22.1571 12.8577 22.1571 12.7983V12.1485C22.1571 12.089 22.1388 12.0402 22.1023 12.0019Z" fill="black"/>
<path d="M15.0152 1C14.7056 1 14.4546 1.25099 14.4546 1.56061V2.68182C14.4546 2.99144 14.7056 3.24243 15.0152 3.24243C15.3248 3.24243 15.5758 2.99144 15.5758 2.68182V1.56061C15.5758 1.25099 15.3248 1 15.0152 1Z" fill="black" stroke="black" stroke-width="0.3"/>
<path d="M23.9849 1.56067C23.6753 1.56067 23.4243 1.81166 23.4243 2.12128V3.24249C23.4243 3.55211 23.6753 3.8031 23.9849 3.8031C24.2945 3.8031 24.5455 3.55211 24.5455 3.24249V2.12128C24.5455 1.81166 24.2945 1.56067 23.9849 1.56067Z" fill="black" stroke="black" stroke-width="0.3"/>
<path d="M31.1607 5.48486C30.8511 5.48486 30.6001 5.73586 30.6001 6.04547V7.16669C30.6001 7.4763 30.8511 7.7273 31.1607 7.7273C31.4703 7.7273 31.7213 7.4763 31.7213 7.16669V6.04547C31.7213 5.73586 31.4703 5.48486 31.1607 5.48486Z" fill="black" stroke="black" stroke-width="0.3"/>
<ellipse cx="15.0152" cy="14.4545" rx="0.560608" ry="0.560608" fill="black"/>
<circle cx="22.8638" cy="14.4545" r="0.560608" fill="black"/>
<path fill-rule="evenodd" clip-rule="evenodd" d="M4.42188 28.4697L9.40915 31.8334L18.9234 34.0271L24.5456 32.394V30.1442C24.5456 30.1442 23.2905 31.2934 19.039 30.7465C14.7875 30.1997 15.0152 29.4523 11.1417 28.0163C7.26813 26.5804 4.42188 28.4697 4.42188 28.4697Z" fill="#FFC322"/>
<path fill-rule="evenodd" clip-rule="evenodd" d="M29.0303 22.8638H35.197C35.5066 22.8638 35.7576 23.1148 35.7576 23.4244V34.0759C35.7576 34.3855 35.5066 34.6365 35.197 34.6365H29.0303C28.32 34.6331 27.6883 34.1838 27.4522 33.5139H24.6456C24.4686 33.5121 24.3034 33.4249 24.202 33.2799L19.3219 34.4011C19.0701 34.4581 18.8086 34.4581 18.5567 34.4011L9.28426 32.2834C9.22032 32.2687 9.15939 32.2431 9.10417 32.2077L2.87651 28.1776C2.40669 27.8775 2.122 27.3588 2.12109 26.8013V25.5855C2.12069 25.0682 2.36593 24.5813 2.78191 24.2737C3.21239 23.9511 3.77012 23.8513 4.28574 24.0046L12.8581 26.5189C13.0354 25.9544 13.4595 25.5009 14.0109 25.2863L18.4004 23.5449C18.7216 23.4174 19.0739 23.39 19.4109 23.4664L24.0878 24.5281C24.0972 24.2267 24.3434 23.9867 24.6449 23.985H27.4515C27.6882 23.3154 28.3201 22.8667 29.0303 22.8638ZM19.0711 33.3107L23.9498 32.1895L23.9848 25.6542L19.165 24.561C19.0482 24.5343 18.9259 24.5438 18.8146 24.5883L14.4251 26.3311C14.1085 26.4508 13.8977 26.7523 13.8939 27.0908C13.8939 27.5413 14.2814 27.9092 14.7572 27.9092H18.9394C19.249 27.9092 19.5 28.1602 19.5 28.4699C19.5 28.7795 19.249 29.0305 18.9394 29.0305H14.7572C13.9069 29.035 13.1477 28.4985 12.868 27.6955L3.96833 25.081C3.79175 25.0269 3.59995 25.0608 3.45257 25.1721C3.32021 25.2679 3.24198 25.4214 3.24235 25.5848V26.8006C3.24231 26.9778 3.33234 27.1428 3.4813 27.2386L9.62697 31.2154L18.8069 33.3107C18.8938 33.331 18.9842 33.331 19.0711 33.3107ZM27.3484 32.3941H25.1059V25.1062H27.3484V32.3941ZM29.0303 33.5153H34.6364V23.985H29.0303C28.7207 23.985 28.4697 24.236 28.4697 24.5456V32.9547C28.4697 33.2643 28.7207 33.5153 29.0303 33.5153Z" fill="black"/>
<path d="M29.0303 22.8638V22.7138L29.0297 22.7138L29.0303 22.8638ZM29.0303 34.6365L29.0296 34.7865H29.0303V34.6365ZM27.4522 33.5139L27.5936 33.464L27.5583 33.3639H27.4522V33.5139ZM24.6456 33.5139L24.6441 33.6639H24.6456V33.5139ZM24.202 33.2799L24.325 33.1939L24.267 33.111L24.1685 33.1337L24.202 33.2799ZM19.3219 34.4011L19.3551 34.5474L19.3555 34.5473L19.3219 34.4011ZM18.5567 34.4011L18.5233 34.5473L18.5236 34.5474L18.5567 34.4011ZM9.28426 32.2834L9.25075 32.4296L9.25087 32.4296L9.28426 32.2834ZM9.10417 32.2077L9.02267 32.3336L9.02318 32.334L9.10417 32.2077ZM2.87651 28.1776L2.95801 28.0517L2.95726 28.0512L2.87651 28.1776ZM2.12109 26.8013H1.97109L1.97109 26.8016L2.12109 26.8013ZM2.12109 25.5855H2.27109L2.27109 25.5854L2.12109 25.5855ZM2.78191 24.2737L2.8711 24.3943L2.87186 24.3937L2.78191 24.2737ZM4.28574 24.0046L4.243 24.1484L4.24353 24.1485L4.28574 24.0046ZM12.8581 26.5189L12.8159 26.6629L12.9572 26.7043L13.0012 26.5639L12.8581 26.5189ZM14.0109 25.2863L14.0653 25.4261L14.0662 25.4257L14.0109 25.2863ZM18.4004 23.5449L18.4558 23.6843L18.4558 23.6843L18.4004 23.5449ZM19.4109 23.4664L19.4442 23.3201L19.4441 23.3201L19.4109 23.4664ZM24.0878 24.5281L24.0546 24.6744L24.2321 24.7146L24.2377 24.5328L24.0878 24.5281ZM24.6449 23.985V23.835L24.6441 23.835L24.6449 23.985ZM27.4515 23.985V24.135H27.5575L27.5929 24.035L27.4515 23.985ZM23.9498 32.1895L23.9834 32.3357L24.0992 32.3091L24.0998 32.1903L23.9498 32.1895ZM19.0711 33.3107L19.0375 33.1645L19.037 33.1646L19.0711 33.3107ZM23.9848 25.6542L24.1348 25.655L24.1355 25.5346L24.018 25.5079L23.9848 25.6542ZM19.165 24.561L19.1316 24.7072L19.1318 24.7073L19.165 24.561ZM18.8146 24.5883L18.87 24.7278L18.8704 24.7276L18.8146 24.5883ZM14.4251 26.3311L14.4781 26.4715L14.4804 26.4705L14.4251 26.3311ZM13.8939 27.0908L13.7439 27.0891V27.0908H13.8939ZM14.7572 29.0305V28.8805L14.7564 28.8805L14.7572 29.0305ZM12.868 27.6955L13.0096 27.6462L12.9843 27.5733L12.9103 27.5516L12.868 27.6955ZM3.96833 25.081L3.92442 25.2244L3.92605 25.2249L3.96833 25.081ZM3.45257 25.1721L3.54052 25.2936L3.54297 25.2918L3.45257 25.1721ZM3.24235 25.5848H3.39235L3.39235 25.5845L3.24235 25.5848ZM3.24235 26.8006L3.39235 26.8007V26.8006H3.24235ZM3.4813 27.2386L3.5628 27.1127L3.56246 27.1125L3.4813 27.2386ZM9.62697 31.2154L9.54548 31.3414L9.56774 31.3558L9.59359 31.3617L9.62697 31.2154ZM18.8069 33.3107L18.8411 33.1646L18.8403 33.1645L18.8069 33.3107ZM25.1059 32.3941H24.9559V32.5441H25.1059V32.3941ZM27.3484 32.3941V32.5441H27.4984V32.3941H27.3484ZM25.1059 25.1062V24.9562H24.9559V25.1062H25.1059ZM27.3484 25.1062H27.4984V24.9562H27.3484V25.1062ZM34.6364 33.5153V33.6653H34.7864V33.5153H34.6364ZM34.6364 23.985H34.7864V23.835H34.6364V23.985ZM35.197 22.7138H29.0303V23.0138H35.197V22.7138ZM35.9076 23.4244C35.9076 23.0319 35.5894 22.7138 35.197 22.7138V23.0138C35.4237 23.0138 35.6076 23.1976 35.6076 23.4244H35.9076ZM35.9076 34.0759V23.4244H35.6076V34.0759H35.9076ZM35.197 34.7865C35.5894 34.7865 35.9076 34.4684 35.9076 34.0759H35.6076C35.6076 34.3027 35.4237 34.4865 35.197 34.4865V34.7865ZM29.0303 34.7865H35.197V34.4865H29.0303V34.7865ZM27.3107 33.5638C27.5679 34.2935 28.2559 34.7828 29.0296 34.7865L29.031 34.4865C28.384 34.4835 27.8087 34.0742 27.5936 33.464L27.3107 33.5638ZM24.6456 33.6639H27.4522V33.3639H24.6456V33.6639ZM24.0791 33.3658C24.2082 33.5506 24.4187 33.6616 24.6441 33.6639L24.6472 33.3639C24.5186 33.3626 24.3986 33.2993 24.325 33.1939L24.0791 33.3658ZM19.3555 34.5473L24.2356 33.4261L24.1685 33.1337L19.2884 34.2549L19.3555 34.5473ZM18.5236 34.5474C18.7973 34.6093 19.0814 34.6093 19.3551 34.5474L19.2888 34.2548C19.0587 34.3068 18.8199 34.3068 18.5898 34.2548L18.5236 34.5474ZM9.25087 32.4296L18.5233 34.5473L18.5901 34.2548L9.31766 32.1372L9.25087 32.4296ZM9.02318 32.334C9.09296 32.3787 9.16995 32.4111 9.25075 32.4296L9.31778 32.1372C9.27069 32.1264 9.22582 32.1075 9.18516 32.0814L9.02318 32.334ZM2.79502 28.3036L9.02268 32.3336L9.18566 32.0818L2.95801 28.0517L2.79502 28.3036ZM1.97109 26.8016C1.97208 27.4102 2.28287 27.9764 2.79577 28.304L2.95726 28.0512C2.53051 27.7786 2.27192 27.3075 2.27109 26.8011L1.97109 26.8016ZM1.97109 25.5855V26.8013H2.27109V25.5855H1.97109ZM2.69272 24.1531C2.23846 24.489 1.97065 25.0207 1.97109 25.5856L2.27109 25.5854C2.27073 25.1156 2.4934 24.6736 2.8711 24.3943L2.69272 24.1531ZM4.32848 23.8608C3.76737 23.694 3.16042 23.8026 2.69196 24.1537L2.87186 24.3937C3.26435 24.0996 3.77288 24.0086 4.243 24.1484L4.32848 23.8608ZM12.9004 26.375L4.32796 23.8607L4.24353 24.1485L12.8159 26.6629L12.9004 26.375ZM13.9565 25.1465C13.3626 25.3777 12.9059 25.866 12.715 26.474L13.0012 26.5639C13.1649 26.0428 13.5563 25.6242 14.0653 25.4261L13.9565 25.1465ZM18.3451 23.4055L13.9556 25.1469L14.0662 25.4257L18.4558 23.6843L18.3451 23.4055ZM19.4441 23.3201C19.0775 23.2371 18.6944 23.2668 18.3451 23.4055L18.4558 23.6843C18.7489 23.568 19.0703 23.543 19.3778 23.6127L19.4441 23.3201ZM24.121 24.3818L19.4442 23.3201L19.3777 23.6127L24.0546 24.6744L24.121 24.3818ZM24.6441 23.835C24.2618 23.8372 23.9498 24.1413 23.9379 24.5234L24.2377 24.5328C24.2446 24.312 24.4249 24.1363 24.6458 24.135L24.6441 23.835ZM27.4515 23.835H24.6449V24.135H27.4515V23.835ZM29.0297 22.7138C28.2561 22.7169 27.5679 23.2057 27.31 23.935L27.5929 24.035C27.8085 23.4251 28.384 23.0164 29.0309 23.0138L29.0297 22.7138ZM23.9162 32.0433L19.0375 33.1645L19.1047 33.4569L23.9834 32.3357L23.9162 32.0433ZM23.8348 25.6534L23.7998 32.1887L24.0998 32.1903L24.1348 25.655L23.8348 25.6534ZM19.1318 24.7073L23.9517 25.8005L24.018 25.5079L19.1982 24.4147L19.1318 24.7073ZM18.8704 24.7276C18.9533 24.6944 19.0444 24.6873 19.1316 24.7072L19.1985 24.4148C19.0519 24.3813 18.8985 24.3932 18.7589 24.4491L18.8704 24.7276ZM14.4804 26.4705L18.87 24.7278L18.7593 24.4489L14.3697 26.1917L14.4804 26.4705ZM14.0439 27.0924C14.047 26.8158 14.2193 26.5693 14.4781 26.4714L14.372 26.1908C13.9977 26.3324 13.7484 26.6889 13.7439 27.0891L14.0439 27.0924ZM14.7572 27.7592C14.3567 27.7592 14.0439 27.4511 14.0439 27.0908H13.7439C13.7439 27.6316 14.2062 28.0592 14.7572 28.0592V27.7592ZM18.9394 27.7592H14.7572V28.0592H18.9394V27.7592ZM19.65 28.4699C19.65 28.0774 19.3318 27.7592 18.9394 27.7592V28.0592C19.1661 28.0592 19.35 28.2431 19.35 28.4699H19.65ZM18.9394 29.1805C19.3318 29.1805 19.65 28.8623 19.65 28.4699H19.35C19.35 28.6966 19.1661 28.8805 18.9394 28.8805V29.1805ZM14.7572 29.1805H18.9394V28.8805H14.7572V29.1805ZM12.7263 27.7449C13.0272 28.6084 13.8436 29.1853 14.758 29.1805L14.7564 28.8805C13.9702 28.8846 13.2683 28.3886 13.0096 27.6462L12.7263 27.7449ZM3.92605 25.2249L12.8257 27.8394L12.9103 27.5516L4.01061 24.9371L3.92605 25.2249ZM3.54297 25.2918C3.65196 25.2095 3.79382 25.1844 3.92442 25.2244L4.01225 24.9375C3.78968 24.8694 3.54794 24.9121 3.36218 25.0524L3.54297 25.2918ZM3.39235 25.5845C3.39209 25.4693 3.44722 25.3611 3.5405 25.2936L3.36464 25.0506C3.1932 25.1746 3.09187 25.3735 3.09235 25.5852L3.39235 25.5845ZM3.39235 26.8006V25.5848H3.09235V26.8006H3.39235ZM3.56246 27.1125C3.45641 27.0442 3.39232 26.9268 3.39235 26.8007L3.09235 26.8006C3.0923 27.0288 3.20826 27.2413 3.40015 27.3648L3.56246 27.1125ZM9.70846 31.0895L3.5628 27.1127L3.39981 27.3646L9.54548 31.3414L9.70846 31.0895ZM18.8403 33.1645L9.66035 31.0692L9.59359 31.3617L18.7735 33.4569L18.8403 33.1645ZM19.037 33.1646C18.9725 33.1797 18.9055 33.1797 18.8411 33.1646L18.7728 33.4568C18.8821 33.4823 18.9959 33.4823 19.1053 33.4568L19.037 33.1646ZM25.1059 32.5441H27.3484V32.2441H25.1059V32.5441ZM24.9559 25.1062V32.3941H25.2559V25.1062H24.9559ZM27.3484 24.9562H25.1059V25.2562H27.3484V24.9562ZM27.4984 32.3941V25.1062H27.1984V32.3941H27.4984ZM34.6364 33.3653H29.0303V33.6653H34.6364V33.3653ZM34.4864 23.985V33.5153H34.7864V23.985H34.4864ZM29.0303 24.135H34.6364V23.835H29.0303V24.135ZM28.6197 24.5456C28.6197 24.3188 28.8035 24.135 29.0303 24.135V23.835C28.6378 23.835 28.3197 24.1531 28.3197 24.5456H28.6197ZM28.6197 32.9547V24.5456H28.3197V32.9547H28.6197ZM29.0303 33.3653C28.8035 33.3653 28.6197 33.1815 28.6197 32.9547H28.3197C28.3197 33.3472 28.6378 33.6653 29.0303 33.6653V33.3653Z" fill="black"/>
<ellipse cx="18.9393" cy="35.7577" rx="12.3334" ry="2.24243" fill="#1D1939"/>
<path d="M32.4944 31.2728H30.8126C30.5029 31.2728 30.252 31.5238 30.252 31.8334C30.252 32.1431 30.5029 32.394 30.8126 32.394H32.4944C32.804 32.394 33.055 32.1431 33.055 31.8334C33.055 31.5238 32.804 31.2728 32.4944 31.2728Z" fill="black"/>
<path d="M6.5837 16.5919C6.56873 16.5728 6.54958 16.5632 6.5263 16.5632H6.0993C6.07098 16.3871 6.01771 16.2341 5.93947 16.1046H6.52127C6.54462 16.1046 6.56372 16.095 6.57874 16.076C6.59364 16.0569 6.60113 16.0324 6.60113 16.0027V15.6777C6.60113 15.648 6.59365 15.6236 6.57874 15.6045C6.5637 15.5854 6.5446 15.5758 6.52126 15.5758H4.44367C4.42035 15.5758 4.40122 15.5854 4.38623 15.6045C4.37128 15.6236 4.36377 15.648 4.36377 15.6777V16.1014C4.36377 16.129 4.37168 16.1528 4.38749 16.173C4.4033 16.1932 4.42203 16.2033 4.44367 16.2033H4.80575C5.157 16.2033 5.38008 16.3232 5.47496 16.5632H4.44367C4.42035 16.5632 4.40119 16.5727 4.38623 16.5918C4.37128 16.611 4.36377 16.6354 4.36377 16.6651V16.99C4.36377 17.0198 4.37125 17.0442 4.38623 17.0633C4.40122 17.0824 4.42038 17.0919 4.44367 17.0919H5.50997C5.47334 17.2661 5.38801 17.3988 5.25398 17.4901C5.11995 17.5814 4.94311 17.6271 4.72335 17.6271H4.44367C4.42203 17.6271 4.4033 17.6372 4.38749 17.6573C4.37167 17.6775 4.36377 17.7014 4.36377 17.729V18.1336C4.36377 18.1612 4.37125 18.1846 4.38623 18.2037C4.70585 18.6368 5.12038 19.2431 5.62979 20.0224C5.64479 20.048 5.66559 20.0607 5.69223 20.0607H6.17916C6.21415 20.0607 6.23831 20.0416 6.25158 20.0033C6.26823 19.9651 6.26497 19.929 6.24159 19.895C5.75554 19.1348 5.37345 18.5657 5.09543 18.1877C5.37844 18.1452 5.60818 18.0284 5.78465 17.8373C5.9611 17.6462 6.06846 17.3977 6.10678 17.092H6.5263C6.54958 17.092 6.56874 17.0824 6.5837 17.0633C6.5987 17.0442 6.6062 17.0198 6.6062 16.9901V16.6652C6.6062 16.6354 6.5987 16.611 6.5837 16.5919Z" fill="black" stroke="black" stroke-width="0.1"/>
<path d="M34.614 14.3495C34.599 14.3304 34.5798 14.3208 34.5566 14.3208H34.1296C34.1013 14.1446 34.048 13.9917 33.9697 13.8621H34.5515C34.5749 13.8621 34.594 13.8526 34.609 13.8335C34.6239 13.8144 34.6314 13.79 34.6314 13.7603V13.4353C34.6314 13.4056 34.6239 13.3812 34.609 13.362C34.594 13.343 34.5749 13.3334 34.5515 13.3334H32.4739C32.4506 13.3334 32.4315 13.343 32.4165 13.362C32.4016 13.3811 32.394 13.4055 32.394 13.4353V13.8589C32.394 13.8865 32.4019 13.9104 32.4178 13.9306C32.4336 13.9508 32.4523 13.9608 32.4739 13.9608H32.836C33.1873 13.9608 33.4104 14.0808 33.5052 14.3208H32.4739C32.4506 14.3208 32.4315 14.3303 32.4165 14.3494C32.4016 14.3685 32.394 14.3929 32.394 14.4227V14.7476C32.394 14.7773 32.4015 14.8018 32.4165 14.8208C32.4315 14.84 32.4507 14.8495 32.4739 14.8495H33.5402C33.5036 15.0236 33.4183 15.1563 33.2843 15.2477C33.1502 15.339 32.9734 15.3846 32.7536 15.3846H32.4739C32.4523 15.3846 32.4336 15.3947 32.4178 15.4149C32.4019 15.4351 32.394 15.459 32.394 15.4866V15.8911C32.394 15.9188 32.4015 15.9421 32.4165 15.9612C32.7361 16.3944 33.1507 17.0006 33.6601 17.78C33.6751 17.8055 33.6959 17.8182 33.7225 17.8182H34.2094C34.2444 17.8182 34.2686 17.7992 34.2819 17.7609C34.2985 17.7227 34.2952 17.6866 34.2719 17.6526C33.7858 16.8923 33.4037 16.3232 33.1257 15.9453C33.4087 15.9028 33.6385 15.786 33.8149 15.5949C33.9914 15.4038 34.0987 15.1553 34.1371 14.8495H34.5566C34.5798 14.8495 34.599 14.84 34.614 14.8209C34.629 14.8018 34.6365 14.7774 34.6365 14.7477V14.4228C34.6365 14.393 34.629 14.3686 34.614 14.3495Z" fill="#1E1F24" stroke="black" stroke-width="0.1"/>
</svg>
